<svg xmlns="http://www.w3.org/2000/svg" width="192" height="192" fill="none"><rect id="backgroundrect" width="100%" height="100%" x="0" y="0" fill="none" stroke="none"/>





















<g class="currentLayer" style=""><title>Layer 1</title><circle cx="96" cy="96" r="96" fill="#F3E4D0" id="svg_1" class=""/><path fill-rule="evenodd" clip-rule="evenodd" d="M66.7107008178711,60.8961 C72.2933008178711,57.2062 79.5458008178711,57.2299 85.10420081787109,60.9562 L103.59390081787109,73.3513 C105.0579008178711,74.3331 106.3129008178711,75.5961 107.28490081787109,77.0671 L142.7989008178711,130.797 C144.3219008178711,133.101 143.6889008178711,136.203 141.38490081787108,137.725 L108.1279008178711,159.707 C105.8249008178711,161.229 102.72290081787109,160.596 101.1999008178711,158.293 L65.68640081787109,104.562 C64.71420081787109,103.092 64.04390081787109,101.442 63.71470081787109,99.7099 L59.55740081787109,77.8417 C58.30760081787109,71.2676 61.12810081787109,64.586 66.7107008178711,60.8961 zM84.4299008178711,87.7043 C88.76950081787109,84.836 89.9623008178711,78.9928 87.09390081787109,74.6532 C84.2256008178711,70.3136 78.38240081787109,69.1208 74.0428008178711,71.9892 C69.70320081787109,74.8575 68.51050081787109,80.7007 71.3788008178711,85.0403 C74.2471008178711,89.3799 80.0903008178711,90.5726 84.4299008178711,87.7043 z" fill="#F8EFE4" id="svg_2" class=""/><path fill-rule="evenodd" clip-rule="evenodd" d="M67.22760081787109,59.7616 C73.5750008178711,57.6423 80.57430081787109,59.5423 84.97880081787109,64.5802 L99.6302008178711,81.33840000000001 C100.79090081787109,82.6658 101.6759008178711,84.2106 102.23390081787109,85.883 L122.6319008178711,146.974 C123.5059008178711,149.593 122.09190081787109,152.425 119.47190081787109,153.3 L81.65980081787109,165.925 C79.0406008178711,166.799 76.20830081787109,165.385 75.33370081787109,162.766 L54.936600817871096,101.675 C54.3782008178711,100.002 54.157700817871095,98.2358 54.28790081787109,96.4774 L55.93220081787109,74.2784 C56.426500817871094,67.6048 60.88020081787109,61.8809 67.22760081787109,59.7616 zM77.4046008178711,90.2424 C82.3387008178711,88.595 85.0031008178711,83.2596 83.3557008178711,78.3255 C81.70830081787109,73.3913 76.3729008178711,70.7269 71.4388008178711,72.3744 C66.5047008178711,74.0218 63.840300817871096,79.3572 65.4877008178711,84.2913 C67.13510081787109,89.2254 72.4705008178711,91.8898 77.4046008178711,90.2424 z" fill="#FFFFFD" id="svg_3" class="selected"/><rect x="78.456298828125" y="145.0189971923828" width="1.9394700527191162" height="13.576299667358398" rx="0.9697359800338745" transform="rotate(-18.463300704956055 78.45629882812496,145.0189971923828) " fill="#F3E4D0" id="svg_4" class=""/><rect x="82.1355972290039" y="143.79100036621094" width="1.9394700527191162" height="10.667099952697754" rx="0.9697359800338745" transform="rotate(-18.463300704956055 82.13559722900375,143.7910003662109) " fill="#F3E4D0" id="svg_5" class=""/><rect x="85.81480407714844" y="142.56199645996094" width="1.9394700527191162" height="10.667099952697754" rx="0.9697359800338745" transform="rotate(-18.463300704956055 85.8148040771484,142.56199645996088) " fill="#F3E4D0" id="svg_6" class=""/><rect x="93.17350006103516" y="140.1060028076172" width="1.9394700527191162" height="10.667099952697754" rx="0.9697359800338745" transform="rotate(-18.463300704956055 93.17350006103504,140.1060028076172) " fill="#F3E4D0" id="svg_7" class=""/><rect x="96.85269927978516" y="138.8769989013672" width="1.9394700527191162" height="10.667099952697754" rx="0.9697359800338745" transform="rotate(-18.463300704956055 96.85269927978504,138.87699890136722) " fill="#F3E4D0" id="svg_8" class=""/><rect x="100.53189849853516" y="137.6490020751953" width="1.9394700527191162" height="10.667099952697754" rx="0.9697359800338745" transform="rotate(-18.463300704956055 100.53189849853504,137.64900207519528) " fill="#F3E4D0" id="svg_9" class=""/><rect x="85.8208999633789" y="154.82899475097656" width="1.9394700527191162" height="1.9394700527191162" rx="0.9697359800338745" transform="rotate(-18.463300704956055 85.82089996337885,154.82899475097662) " fill="#F3E4D0" id="svg_10" class=""/><rect x="89.5000991821289" y="153.60000610351562" width="1.9394700527191162" height="1.9394700527191162" rx="0.9697359800338745" transform="rotate(-18.463300704956055 89.50009918212899,153.6000061035156) " fill="#F3E4D0" id="svg_11" class=""/><rect x="93.17950439453125" y="152.3719940185547" width="1.9394700527191162" height="1.9394700527191162" rx="0.9697359800338745" transform="rotate(-18.463300704956055 93.17950439453135,152.3719940185547) " fill="#F3E4D0" id="svg_12" class=""/><rect x="96.85880279541016" y="151.14300537109375" width="1.9394700527191162" height="1.9394700527191162" rx="0.9697359800338745" transform="rotate(-18.463300704956055 96.85880279541014,151.14300537109372) " fill="#F3E4D0" id="svg_13" class=""/><rect x="100.53790283203125" y="149.9149932861328" width="1.9394700527191162" height="1.9394700527191162" rx="0.9697359800338745" transform="rotate(-18.463300704956055 100.53790283203122,149.91499328613276) " fill="#F3E4D0" id="svg_14" class=""/><rect x="104.21790313720703" y="148.68699645996094" width="1.9394700527191162" height="1.9394700527191162" rx="0.9697359800338745" transform="rotate(-18.463300704956055 104.21790313720686,148.68699645996088) " fill="#F3E4D0" id="svg_15" class=""/><rect x="107.89690399169922" y="147.45799255371094" width="1.9394700527191162" height="1.9394700527191162" rx="0.9697359800338745" transform="rotate(-18.463300704956055 107.89690399169929,147.4579925537109) " fill="#F3E4D0" id="svg_16" class=""/><rect x="107.89089965820312" y="135.19200134277344" width="1.9394700527191162" height="13.576299667358398" rx="0.9697359800338745" transform="rotate(-18.463300704956055 107.89089965820297,135.1920013427734) " fill="#F3E4D0" id="svg_17" class=""/><path fill-rule="evenodd" clip-rule="evenodd" d="M69.68080081787109,110.846 C69.1112008178711,109.14 69.2260008178711,107.57 70.0253008178711,106.137 C70.82470081787109,104.705 72.1910008178711,103.665 74.12440081787109,103.02 C76.0838008178711,102.366 77.8069008178711,102.373 79.2936008178711,103.043 C80.7761008178711,103.7 81.81490081787109,104.919 82.40980081787109,106.701 L82.8656008178711,108.066 C83.43520081787109,109.772 83.3248008178711,111.333 82.5343008178711,112.749 C81.74380081787109,114.165 80.3819008178711,115.195 78.4486008178711,115.841 C76.5283008178711,116.482 74.8094008178711,116.487 73.2919008178711,115.856 C71.7833008178711,115.208 70.7294008178711,113.986 70.1302008178711,112.192 L69.68080081787109,110.846 zM74.42020081787109,110.886 C74.63970081787109,111.543 75.00840081787109,112.017 75.5265008178711,112.307 C76.0403008178711,112.585 76.63040081787109,112.613 77.2966008178711,112.391 C78.6682008178711,111.933 79.07130081787109,110.857 78.5059008178711,109.163 L78.12610081787109,108.026 C77.9067008178711,107.369 77.5445008178711,106.893 77.03950081787109,106.598 C76.5303008178711,106.29 75.94250081787109,106.248 75.27630081787109,106.47 C74.6362008178711,106.684 74.1964008178711,107.062 73.9568008178711,107.606 C73.71300081787109,108.137 73.70920081787109,108.756 73.94550081787109,109.464 L74.42020081787109,110.886 z" fill="#F3E4D0" id="svg_18" class=""/><path fill-rule="evenodd" clip-rule="evenodd" d="M88.4242008178711,121.844 C87.85030081787109,120.125 87.96510081787109,118.556 88.76870081787109,117.136 C89.5853008178711,115.711 90.9537008178711,114.679 92.87400081787109,114.037 C94.82040081787109,113.388 96.5393008178711,113.383 98.0307008178711,114.022 C99.52200081787109,114.662 100.57390081787109,115.898 101.1859008178711,117.731 L101.6289008178711,119.058 C102.20190081787109,120.777 102.09390081787109,122.344 101.3039008178711,123.76 C100.5129008178711,125.176 99.1447008178711,126.208 97.1982008178711,126.858 C95.27800081787109,127.499 93.5591008178711,127.504 92.0416008178711,126.873 C90.5330008178711,126.225 89.4791008178711,125.004 88.87990081787109,123.209 L88.4242008178711,121.844 zM93.14400081787109,121.891 C93.34230081787109,122.485 93.7264008178711,122.939 94.29640081787109,123.255 C94.8621008178711,123.558 95.44540081787109,123.609 96.0463008178711,123.408 C97.3134008178711,122.985 97.8051008178711,122.175 97.5214008178711,120.977 L96.8891008178711,119.018 C96.66550081787109,118.348 96.2967008178711,117.874 95.78280081787109,117.596 C95.26480081787109,117.306 94.67910081787109,117.269 94.0260008178711,117.488 C93.3990008178711,117.697 92.9614008178711,118.061 92.71340081787109,118.579 C92.46120081787109,119.085 92.43170081787109,119.67 92.6250008178711,120.336 L93.14400081787109,121.891 z" fill="#F3E4D0" id="svg_19" class=""/><path d="M84.06530081787109,128.52 L84.0763008178711,128.521 L90.8052008178711,102.297 L90.80150081787109,102.296 C91.11100081787109,100.987 90.60720081787109,99.7664 89.65680081787109,99.551 C88.6893008178711,99.3316 87.62530081787109,100.237 87.2803008178711,101.573 C87.2542008178711,101.674 87.2329008178711,101.775 87.21630081787109,101.875 L80.58880081787109,127.704 C80.5596008178711,127.789 80.5333008178711,127.877 80.5103008178711,127.966 C80.1653008178711,129.302 80.6696008178711,130.563 81.6366008178711,130.782 C82.6037008178711,131.001 83.66720081787109,130.096 84.01220081787109,128.76 C84.0329008178711,128.679 84.0506008178711,128.599 84.06530081787109,128.52 z" fill="#F3E4D0" id="svg_20" class=""/><path d="M94.2248008178711,15.731 C93.77810081787109,14.7207 92.59700081787109,14.264 91.5868008178711,14.7107 C90.5766008178711,15.1574 90.1198008178711,16.3385 90.56650081787109,17.3487 L94.2248008178711,15.731 zM73.66540081787109,80.3675 L74.00700081787109,78.3969 L72.57520081787109,82.0442 L73.66540081787109,80.3675 zM116.96590081787109,30.157 C117.0329008178711,29.0545 116.1939008178711,28.1062 115.09190081787109,28.0388 C113.9889008178711,27.9715 113.04090081787109,28.8107 112.97290081787109,29.9132 L116.96590081787109,30.157 zM90.56650081787109,17.3487 C92.4880008178711,21.6939 93.6310008178711,27.9609 93.88550081787109,34.9739 C94.13890081787109,41.9559 93.5060008178711,49.5194 91.9894008178711,56.3815 C90.46550081787109,63.2767 88.08670081787109,69.2937 84.96420081787109,73.3194 C81.88680081787109,77.2869 78.27070081787109,79.136 74.00700081787109,78.3969 L73.32380081787109,82.3381 C79.4789008178711,83.4051 84.4461008178711,80.5139 88.1249008178711,75.771 C91.7585008178711,71.0863 94.3087008178711,64.423 95.8952008178711,57.2448 C97.48900081787109,50.0334 98.14790081787109,42.1301 97.88290081787109,34.8288 C97.6190008178711,27.5585 96.43350081787109,20.7256 94.2248008178711,15.731 L90.56650081787109,17.3487 zM72.57520081787109,82.0442 C76.3310008178711,84.4864 81.0313008178711,84.2894 85.6455008178711,82.4711 C90.2762008178711,80.6463 95.1071008178711,77.0982 99.5283008178711,72.296 C108.37990081787109,62.6811 115.8939008178711,47.7092 116.96590081787109,30.157 L112.97290081787109,29.9132 C111.96090081787109,46.4952 104.85090081787109,60.6091 96.5855008178711,69.5867 C92.4481008178711,74.0807 88.09730081787109,77.2055 84.1789008178711,78.7496 C80.2440008178711,80.3002 77.0278008178711,80.1682 74.7556008178711,78.6908 L72.57520081787109,82.0442 z" fill="#DECDB5" id="svg_21" class=""/></g></svg>