<svg width="192" height="192" viewBox="0 0 192 192" fill="none" xmlns="http://www.w3.org/2000/svg">
<circle cx="96" cy="96" r="96" fill="#F3E4D0"/>
<mask id="mask0" mask-type="alpha" maskUnits="userSpaceOnUse" x="0" y="0" width="192" height="192">
<circle cx="96" cy="96" r="96" fill="#F3E4D0"/>
</mask>
<g mask="url(#mask0)">
<path d="M122.118 123.59L108.52 111.952C106.023 109.815 104.663 106.556 103.198 103.614C102.329 101.869 100.912 99.8483 98.6018 97.8716C94.9862 94.7775 87.9577 92.8715 82.8559 91.835C78.9426 91.0399 75.213 89.3792 72.2622 86.6886L65.7939 80.7907C60.3502 75.827 51.7388 77.0133 47.8399 83.264C45.3526 87.2517 45.7724 92.3981 48.873 95.93L53.0122 100.645C60.4381 109.104 68.8309 116.662 78.0184 123.165L92.3425 133.304C95.623 135.626 99.5269 136.906 103.545 136.976L119.857 137.263C123.503 137.327 126.352 134.135 125.877 130.521C125.522 127.826 124.184 125.357 122.118 123.59Z" fill="#FFFFFD"/>
<path d="M37.1734 26.9416L34.4448 19.2767L1.52141 42.9015L22.3834 72.0449C27.7568 79.5514 33.7582 86.5878 40.3228 93.0783L56.8029 109.372C57.243 109.807 57.9686 109.742 58.3243 109.236L73.295 87.9179C74.3271 86.4481 74.1497 84.4483 72.8749 83.1832C56.9148 67.3446 44.7142 48.1248 37.1734 26.9416Z" fill="#DECDB5"/>
<path d="M50.5 202L39.0392 149.789C37.6836 143.614 36.9825 137.312 36.9476 130.99L36.8302 109.746C36.6125 70.3651 28.0302 31.4794 11.6517 -4.33503L-1 -32L-10.2177 154.871C-11.236 175.514 3.27029 193.688 23.6257 197.27L50.5 202Z" fill="#DECDB5"/>
<path d="M6.89063 144.53C6.89063 144.53 15.5514 47.6562 20.8906 10.0304L-10.1094 20.5303L-14.0285 83.8581C-5.42989 107.654 6.89063 144.53 6.89063 144.53Z" fill="#F3E4D0"/>
<path d="M138.031 197.32L149.519 153.118C151.391 145.915 152.362 138.462 152.411 131.021C152.709 85.4128 164.226 40.2899 185.943 0.182741L192.609 -12.1278L202.08 150.042C203.318 171.234 188.175 189.866 167.178 192.987L138.031 197.32Z" fill="#FFFFFD"/>
<path d="M188.155 101.547C183.823 104.959 167.852 109.012 160.407 110.612L160.407 126.609C168.303 122.343 184.906 111.358 188.155 101.547Z" fill="#F8EFE4"/>
<path d="M126.012 102.013L136.719 103.773C137.346 103.876 137.988 103.824 138.59 103.621L141.675 102.582C147.132 100.744 153.03 103.775 154.714 109.282L154.92 109.956C156.434 114.91 153.263 120.07 148.159 120.957C140.697 122.254 133.52 124.846 126.953 128.618L111.93 137.245C107.88 139.571 102.994 139.941 98.6395 138.251L86.8879 133.69C82.5703 132.014 80.6292 126.988 82.6996 122.845C84.4963 119.25 87.7033 116.561 91.5567 115.418L102.254 112.245C102.494 112.174 102.537 111.853 102.325 111.721C100.285 110.447 100.121 107.538 102.004 106.042L103.577 104.793C103.654 104.732 103.744 104.69 103.841 104.671L116.836 102.146C119.863 101.558 122.969 101.513 126.012 102.013Z" fill="#F8EFE4"/>
<path d="M191.918 64.1142L196.744 58.6604L216.193 89.2755L190.363 105.727C182.576 110.686 174.383 114.975 165.87 118.547L148.199 125.962C147.629 126.202 146.98 125.87 146.839 125.268L141.555 102.686C141.189 101.12 142.004 99.5189 143.486 98.8941C162.029 91.0721 178.58 79.1865 191.918 64.1142Z" fill="#FFFFFD"/>
</g>
</svg>
