<svg width="50" height="50" viewBox="0 0 50 50" fill="none" xmlns="http://www.w3.org/2000/svg">
<circle cx="25" cy="25" r="25" fill="#F3E4D0"/>
<path d="M24.1527 8.33532C24.3464 8.14826 24.6536 8.14826 24.8473 8.33532L39 22H10L24.1527 8.33532Z" fill="#DECDB4"/>
<rect x="13" y="15" width="23" height="17" rx="0.5" fill="white"/>
<path d="M10 20.8988C10 20.5068 10.4306 20.2673 10.7637 20.474L24.2363 28.8363C24.3978 28.9366 24.6022 28.9366 24.7637 28.8363L38.2363 20.474C38.5694 20.2673 39 20.5068 39 20.8988V36.5C39 36.7761 38.7761 37 38.5 37H10.5C10.2239 37 10 36.7761 10 36.5V20.8988Z" fill="#F7EFE3"/>
<mask id="mask0" mask-type="alpha" maskUnits="userSpaceOnUse" x="10" y="20" width="29" height="18">
<path d="M10 21.7977C10 21.0136 10.8612 20.5345 11.5274 20.948L23.9726 28.6727C24.2956 28.8732 24.7044 28.8732 25.0274 28.6727L37.4726 20.948C38.1388 20.5345 39 21.0136 39 21.7977V36.5C39 36.7761 38.7761 37 38.5 37H10.5C10.2239 37 10 36.7761 10 36.5V21.7977Z" fill="#F7EFE3"/>
</mask>
<g mask="url(#mask0)">
<path d="M8.7688 37.75L24.5 26.3091L40.2312 37.75H8.7688Z" stroke="#F3E4D0" stroke-width="0.5"/>
</g>
</svg>
