<svg width="170" height="170" viewBox="0 0 170 170" fill="none" xmlns="http://www.w3.org/2000/svg">
<circle cx="85" cy="85" r="85" fill="#F3E4D0"/>
<mask id="mask0" mask-type="alpha" maskUnits="userSpaceOnUse" x="0" y="0" width="170" height="170">
<circle cx="85" cy="85" r="85" fill="#F3E4D0"/>
</mask>
<g mask="url(#mask0)">
<path d="M37.0291 163.911C38.3209 163.172 40.8905 159.712 46.9516 148.417C60.3897 123.376 48.1698 115 53.6586 90H81.6432L98.0639 126.87L76.3238 166.134L37.0291 163.911C36.5352 164.194 36.2281 164.079 35.9841 163.852L34 163.74C35.2192 162.327 35.4513 163.357 35.9841 163.852L37.0291 163.911Z" fill="#F8EFE4"/>
<path d="M79.7709 115.777C83.3078 127.884 82.7365 140.822 78.1462 152.57L71.5312 169.5H104.027L114.937 103.811L108.902 63.191L92.1895 35.105L71.5312 31.1591L66.0702 34.2563C53.219 35.1052 42.9947 42.7256 43.2131 56.9239C43.3649 66.7883 48 75.4984 48.3196 85.7062C48.6393 95.9141 56.3853 99.6274 61 106.5C65.6147 113.373 69.9078 120.07 79.7709 115.777Z" fill="#FFFFFD"/>
<path d="M70 39.5C50 37.5 43.6773 51.9721 43.2131 57.8524C40.6598 49.2641 43.0944 26.0695 64.449 19.1061C85.8037 12.1426 104.373 22.5878 114.586 48.3526C124.799 74.1175 118.186 94.0624 114.473 100.562C91.4997 87.2615 108.083 43.3083 70 39.5Z" fill="#F8EFE4"/>
<path d="M104.169 129.82L114.473 100.562L118.956 106.208C120.137 107.694 121.054 109.371 121.67 111.166C122.872 114.673 125.21 117.679 128.313 119.708L139.624 127.104C140.959 127.977 142.361 128.745 143.815 129.401C150.07 132.222 155.204 137.052 158.4 143.125L172.037 169.036H75.0129C88.4691 159.208 98.6337 145.536 104.169 129.82Z" fill="#DECDB4"/>
<path d="M71 17.5C83.9419 20.4866 99.2525 39.697 103.539 51.8145C104.476 54.4635 103.575 57.1829 102.976 59.9282C102.822 60.6348 102.426 61.3995 101.943 61.9369C100.126 63.9539 98.9208 67.5042 98.9208 71.5472C98.9208 77.8848 99.9817 85.6581 96.2793 90.8017C94.734 92.9486 93.1896 94.9561 91.7253 96.6157C89.4961 99.1421 86.7695 101.478 84.2837 103.45C81.9563 105.296 78.3019 105.619 75.9505 107.435C74.0226 108.923 73.2217 111.117 74.1618 112.335C75.1019 113.552 77.4269 113.333 79.3549 111.844C81.4904 110.196 82.8571 107.426 85.0201 105.813C88.0835 103.53 91.1451 100.927 93.8143 97.7762C96.9543 94.0698 100.459 89.6064 104.211 85.1609C105.489 83.6471 107.113 82.8975 108.542 81.5256C110.156 79.9754 112.241 78.1802 113.83 76.6035C115.483 74.9623 116.562 72.2696 116.562 69.226C116.562 66.2165 115.507 63.5499 113.885 61.904C113.201 61.2101 112.58 60.1077 112.318 59.1696C111.329 55.6403 109.155 52.563 107.936 49.1065C101.45 30.717 81.6326 17.083 71 17.5Z" fill="#DECDB4"/>
</g>
</svg>
