<svg width="50" height="50" viewBox="0 0 50 50" fill="none" xmlns="http://www.w3.org/2000/svg">
<circle cx="25" cy="25" r="25" fill="#F3E4D0"/>
<path d="M12.4286 13.5714L30.6281 9.28919C31.2558 9.14149 31.8571 9.61775 31.8571 10.2626V33.3508C31.8571 33.8149 31.5379 34.218 31.0862 34.3242L12.4286 38.7143V13.5714Z" fill="#DECDB4"/>
<path d="M14.7143 14.5384L34.1429 10.1428V34.3186L14.7143 38.7142V14.5384Z" fill="#F3E4D0"/>
<path d="M15.8571 15.6814L35.2857 11.2858V35.4616L15.8571 39.8572V15.6814Z" fill="#FFFFFD"/>
<path d="M18.1429 15.8572L36.3424 11.575C36.9701 11.4273 37.5714 11.9035 37.5714 12.5484V35.6366C37.5714 36.1006 37.2522 36.5037 36.8005 36.61L18.1429 41V15.8572Z" fill="#F8EFE4"/>
<path d="M12.4286 13.5714L18.1429 15.8571V41.0001L12.4286 38.7144V13.5714Z" fill="#F8EFE4"/>
<path d="M13.5714 17.3342C13.5714 16.6267 14.286 16.143 14.9428 16.4057L15.8 16.7486C16.1796 16.9005 16.4286 17.2682 16.4286 17.6771V29.2373C16.4286 29.9447 15.7141 30.4285 15.0572 30.1658L14.2001 29.8229C13.8204 29.671 13.5714 29.3033 13.5714 28.8944V17.3342Z" fill="#FFFFFD"/>
<ellipse cx="15" cy="34.1429" rx="1.42857" ry="2.28571" fill="#DECDB4"/>
</svg>
