<svg width="50" height="50" viewBox="0 0 50 50" fill="none" xmlns="http://www.w3.org/2000/svg">
<circle cx="25" cy="25" r="25" fill="#F3E4D0"/>
<path d="M32 28.2308C32 23.1327 26.6274 19 20 19C13.3726 19 8 23.1327 8 28.2308C8 30.6361 9.19592 32.8264 11.1553 34.4693L9 38L14 36.5C14 36.5 16.5463 37.3094 19.2118 37.442C24.5464 37.7073 32 34.7209 32 28.2308Z" fill="#FFFFFD"/>
<path d="M19 21.2308C19 16.1327 24.3726 12 31 12C37.6274 12 43 16.1327 43 21.2308C43 23.6361 41.8041 25.8264 39.8447 27.4693L42 31L37 29.5C37 29.5 34.4537 30.3094 31.7882 30.442C26.4536 30.7073 19 27.7209 19 21.2308Z" fill="#DECDB4"/>
<path fill-rule="evenodd" clip-rule="evenodd" d="M19.3485 19.0134C19.1208 19.7237 19 20.4664 19 21.2308C19 27.6794 26.3586 30.669 31.6856 30.4467C31.8894 29.7597 32 29.0212 32 28.2308C32 23.1327 26.6274 19 20 19C19.7814 19 19.5642 19.0045 19.3485 19.0134Z" fill="#F8EFE4"/>
</svg>
