<?xml version="1.0" encoding="UTF-8"?>
<svg width="149px" height="41px" viewBox="0 0 149 41" version="1.1" xmlns="http://www.w3.org/2000/svg" xmlns:xlink="http://www.w3.org/1999/xlink">
    <!-- Generator: Sketch 51.2 (57519) - http://www.bohemiancoding.com/sketch -->
    <title>Decido-logo-light</title>
    <desc>Created with Sketch.</desc>
    <defs>
        <polygon id="path-1" points="0.200061873 0.0474782609 23.1712375 0.0474782609 23.1712375 22.4559965 0.200061873 22.4559965"></polygon>
    </defs>
    <g id="main" stroke="none" stroke-width="1" fill="none" fill-rule="evenodd">
        <g id="stylemap" transform="translate(-198.000000, -2952.000000)">
            <g id="Page-1-Copy-2" transform="translate(198.000000, 2952.000000)">
                <g id="Page-1">
                    <path d="M12.0970081,6.63535973 C11.1903397,5.78454241 9.69001923,5.09192181 7.59559708,5.09192181 L5.44225948,5.09192181 C5.2160421,5.09192181 5.03254967,5.27640911 5.03254967,5.50486512 L5.03254967,17.8795656 C5.03254967,18.1075683 5.2160421,18.2925089 5.44225948,18.2925089 L7.59559708,18.2925089 C9.69001923,18.2925089 11.1903397,17.5989817 12.0970081,16.717341 C13.0036766,15.8665237 14.0038902,14.4173692 14.0038902,11.7393571 C14.0038902,9.06134497 13.0036766,7.51745377 12.0970081,6.63535973 M15.6292374,20.0254203 C13.847382,21.5375815 11.0657627,22.6086957 7.31451187,22.6086957 L0.66021295,22.6086957 C0.295476777,22.6086957 0,22.3108869 0,21.9432722 L0,1.53544196 C0,1.16782723 0.295476777,0.869565217 0.66021295,0.869565217 L7.31451187,0.869565217 C11.0657627,0.869565217 13.847382,1.94113269 15.6292374,3.48502389 C17.4421246,4.9971851 19.1304348,7.51745377 19.1304348,11.7393571 C19.1304348,15.9608071 17.4421246,18.4815291 15.6292374,20.0254203" id="Fill-1" fill="#E57C6B"></path>
                    <path d="M42.7931165,22.6086957 L29.3807966,22.6086957 C29.0025446,22.6086957 28.6956522,22.3108869 28.6956522,21.9428189 L28.6956522,1.53544196 C28.6956522,1.16782723 29.0025446,0.869565217 29.3807966,0.869565217 L42.5016153,0.869565217 C42.8798672,0.869565217 43.1862933,1.16782723 43.1862933,1.53544196 L43.1862933,4.26830164 C43.1862933,4.63591637 42.8798672,4.93417838 42.5016153,4.93417838 L34.3400481,4.93417838 C34.105448,4.93417838 33.9146896,5.11866567 33.9146896,5.34712168 L33.9146896,8.96298197 C33.9146896,9.19098469 34.105448,9.37637856 34.3400481,9.37637856 L41.9829763,9.37637856 C42.3612283,9.37637856 42.6676543,9.67418728 42.6676543,10.041802 L42.6676543,12.775115 C42.6676543,13.1422764 42.3612283,13.4405384 41.9829763,13.4405384 L34.3400481,13.4405384 C34.105448,13.4405384 33.9146896,13.625479 33.9146896,13.853935 L33.9146896,18.0681325 C33.9146896,18.2965885 34.105448,18.4815291 34.3400481,18.4815291 L42.7931165,18.4815291 C43.1713684,18.4815291 43.4782609,18.7797911 43.4782609,19.1469525 L43.4782609,21.9428189 C43.4782609,22.3108869 43.1713684,22.6086957 42.7931165,22.6086957" id="Fill-3" fill="#E57C6B"></path>
                    <path d="M71.2410269,19.9997189 C71.3699446,20.302161 71.2986767,20.6562286 71.0576369,20.87872 C69.8333724,22.0071675 67.5714109,23.4782609 63.5953884,23.4782609 C57.1903561,23.4782609 52.173913,19.2235115 52.173913,12.1736846 C52.173913,5.09279117 57.2534532,0.869565217 63.5953884,0.869565217 C67.3444431,0.869565217 69.6572453,2.18121404 70.6450094,2.96290374 C70.908746,3.17168936 71.0045264,3.52986863 70.887411,3.84647351 L69.7952418,6.79185838 C69.6590611,7.15963173 69.2105726,7.29120779 68.8991728,7.05455363 C67.9504472,6.33271276 66.0711536,5.31482576 63.8790982,5.31482576 C60.1876933,5.31482576 57.3483257,7.79147093 57.3483257,12.0786575 C57.3483257,16.3653871 60.3138875,18.810052 63.8790982,18.810052 C66.1914465,18.810052 67.9540787,18.0265349 69.1665409,17.0282929 C69.4665924,16.7811309 69.9173505,16.8912345 70.0703268,17.2498706 L71.2410269,19.9997189 Z" id="Fill-5" fill="#E57C6B"></path>
                    <path d="M85.4067496,22.6086957 L81.5502355,22.6086957 C81.1739903,22.6086957 80.8695652,22.3108869 80.8695652,21.9428189 L80.8695652,1.53544196 C80.8695652,1.16782723 81.1739903,0.869565217 81.5502355,0.869565217 L85.4067496,0.869565217 C85.7825315,0.869565217 86.0869565,1.16782723 86.0869565,1.53544196 L86.0869565,21.9428189 C86.0869565,22.3108869 85.7825315,22.6086957 85.4067496,22.6086957" id="Fill-7" fill="#E57C6B"></path>
                    <path d="M109.488312,6.63535973 C108.581644,5.78454241 107.080874,5.09192181 104.986901,5.09192181 L102.833564,5.09192181 C102.606897,5.09192181 102.423854,5.27640911 102.423854,5.50486512 L102.423854,17.8795656 C102.423854,18.1075683 102.606897,18.2925089 102.833564,18.2925089 L104.986901,18.2925089 C107.080874,18.2925089 108.581644,17.5989817 109.488312,16.717341 C110.394981,15.8665237 111.394745,14.4173692 111.394745,11.7393571 C111.394745,9.06134497 110.394981,7.51745377 109.488312,6.63535973 M113.020542,20.0254203 C111.238686,21.5375815 108.456617,22.6086957 104.705366,22.6086957 L98.0510676,22.6086957 C97.6867811,22.6086957 97.3913043,22.3108869 97.3913043,21.9432722 L97.3913043,1.53544196 C97.3913043,1.16782723 97.6867811,0.869565217 98.0510676,0.869565217 L104.705366,0.869565217 C108.456617,0.869565217 111.238686,1.94113269 113.020542,3.48502389 C114.833879,4.9971851 116.521739,7.51745377 116.521739,11.7393571 C116.521739,15.9608071 114.833879,18.4815291 113.020542,20.0254203" id="Fill-9" fill="#E57C6B"></path>
                    <g id="Group-13" transform="translate(125.217391, 0.000000)">
                        <mask id="mask-2" fill="white">
                            <use xlink:href="#path-1"></use>
                        </mask>
                        <g id="Clip-12"></g>
                        <path d="M11.6854465,4.38441391 C8.07656689,4.38441391 5.34631605,6.99345739 5.34631605,11.1417009 C5.34631605,15.2899443 8.07656689,17.9301878 11.6854465,17.9301878 C15.2943261,17.9301878 18.0245769,15.2899443 18.0245769,11.1417009 C18.0245769,7.02465739 15.2943261,4.38441391 11.6854465,4.38441391 M11.6854465,22.4559965 C5.25240301,22.4559965 0.200061873,18.2761009 0.200061873,11.2674052 C0.200061873,4.25916174 5.25240301,0.0471617391 11.6854465,0.0471617391 C18.1189415,0.0471617391 23.1712826,4.25916174 23.1712826,11.2674052 C23.1712826,18.2761009 18.1189415,22.4559965 11.6854465,22.4559965" id="Fill-11" fill="#E57C6B" mask="url(#mask-2)"></path>
                    </g>
                    <polygon id="Fill-14" fill="#205A59" points="6.08695652 33.7506188 1.83130832 33.7506188 1.83130832 35.4091902 5.48099131 35.4091902 5.48099131 36.9510691 1.83130832 36.9510691 1.83130832 40 0 40 0 32.173913 6.08695652 32.173913"></polygon>
                    <path d="M10.4287818,36.4416003 C10.4287818,37.0596242 10.5781359,37.5518281 10.8763995,37.9177691 C11.1635505,38.2726344 11.6000556,38.4556049 12.173913,38.4556049 C12.7593277,38.4556049 13.1958328,38.2837101 13.4825392,37.9408066 C13.7696902,37.6089787 13.9185998,37.1167748 13.9185998,36.4646378 L13.9185998,32.173913 L15.6521739,32.173913 L15.6521739,36.4305246 C15.6521739,36.9679174 15.5832755,37.4481596 15.4228087,37.8947317 C15.2850118,38.329785 15.0552021,38.7072447 14.7569385,39.0164782 C14.4697875,39.3252686 14.1021809,39.5653897 13.6776775,39.7483602 C13.2416169,39.9082932 12.7362134,40 12.173913,40 C11.6111682,40 11.1173219,39.920255 10.6928184,39.7483602 C10.2567579,39.5884271 9.88915127,39.3593817 9.59088762,39.0390726 C9.30373663,38.7413579 9.07437144,38.3638982 8.92501736,37.9288448 C8.77566329,37.4942345 8.69565217,37.0024736 8.69565217,36.4646378 L8.69565217,32.173913 L10.4287818,32.173913 L10.4287818,36.4416003 Z" id="Fill-16" fill="#205A59"></path>
                    <path d="M21.703978,36.1100223 C22.1285459,36.1100223 22.4704828,36.0050956 22.7179192,35.7947898 C22.9772251,35.5844841 23.1068781,35.2923174 23.1068781,34.9187421 C23.1068781,34.5447145 22.9890948,34.2530001 22.7412019,34.0426943 C22.5056352,33.8441476 22.1755679,33.7392209 21.7510001,33.7392209 L20.0299024,33.7392209 L20.0299024,36.1100223 L21.703978,36.1100223 Z M23.0835954,32.3607007 C23.4606847,32.4891455 23.7788823,32.6641742 24.0619276,32.8975457 C24.3212335,33.1313695 24.5335175,33.4117771 24.6869097,33.7392209 C24.840302,34.0657601 24.9106068,34.4280287 24.9106068,34.8368811 C24.9106068,35.3741784 24.7695407,35.8531327 24.4864954,36.2619852 C24.2034502,36.6708376 23.8026216,36.9860701 23.2954228,37.1963758 L25.2173913,40 L23.0717257,40 L21.6213471,37.6640234 L20.0299024,37.6640234 L20.0299024,40 L18.2608696,40 L18.2608696,32.173913 L21.833631,32.173913 C22.2933513,32.173913 22.7060495,32.2322559 23.0835954,32.3607007 Z" id="Fill-18" fill="#205A59"></path>
                    <polygon id="Fill-20" fill="#205A59" points="34.7826087 40 33.0578365 40 29.5050017 35.000603 29.5050017 40 27.826087 40 27.826087 32.173913 29.37856 32.173913 33.1152696 37.4537177 33.1152696 32.173913 34.7826087 32.173913"></polygon>
                    <polygon id="Fill-22" fill="#205A59" points="37.3913043 40 39.1304348 40 39.1304348 32.173913 37.3913043 32.173913"></polygon>
                    <polygon id="Fill-24" fill="#205A59" points="48.6956522 33.7622867 46.0709264 33.7622867 46.0709264 40 44.3638562 40 44.3638562 33.7622867 41.7391304 33.7622867 41.7391304 32.173913 48.6956522 32.173913"></polygon>
                    <path d="M53.0374774,36.4416003 C53.0374774,37.0596242 53.1868315,37.5518281 53.4855397,37.9177691 C53.7722461,38.2726344 54.2087512,38.4556049 54.7826087,38.4556049 C55.3680233,38.4556049 55.8045284,38.2837101 56.0916794,37.9408066 C56.3783859,37.6089787 56.52774,37.1167748 56.52774,36.4646378 L56.52774,32.173913 L58.2608696,32.173913 L58.2608696,36.4305246 C58.2608696,36.9679174 58.1924156,37.4481596 58.0315044,37.8947317 C57.8937075,38.329785 57.6643423,38.7072447 57.3656341,39.0164782 C57.0784831,39.3252686 56.711321,39.5653897 56.2863731,39.7483602 C55.8503125,39.9082932 55.344909,40 54.7826087,40 C54.2203084,40 53.726462,39.920255 53.3015141,39.7483602 C52.8654535,39.5884271 52.4982914,39.3593817 52.1995833,39.0390726 C51.9128768,38.7413579 51.6830671,38.3638982 51.533713,37.9288448 C51.3843589,37.4942345 51.3043478,37.0024736 51.3043478,36.4646378 L51.3043478,32.173913 L53.0374774,32.173913 L53.0374774,36.4416003 Z" id="Fill-25" fill="#205A59"></path>
                    <path d="M65.1822389,36.1100223 C65.6068068,36.1100223 65.9487437,36.0050956 66.19618,35.7947898 C66.455486,35.5844841 66.585139,35.2923174 66.585139,34.9187421 C66.585139,34.5447145 66.4673556,34.2530001 66.2199193,34.0426943 C65.9838961,33.8441476 65.6538288,33.7392209 65.2297175,33.7392209 L63.5081632,33.7392209 L63.5081632,36.1100223 L65.1822389,36.1100223 Z M66.5618562,32.3607007 C66.9394021,32.4891455 67.2571432,32.6641742 67.540645,32.8975457 C67.7994944,33.1313695 68.0117783,33.4117771 68.1651706,33.7392209 C68.3185629,34.0657601 68.3893242,34.4280287 68.3893242,34.8368811 C68.3893242,35.3741784 68.2478015,35.8531327 67.9647563,36.2619852 C67.6817111,36.6708376 67.2808825,36.9860701 66.7736836,37.1963758 L68.6956522,40 L66.5499866,40 L65.099608,37.6640234 L63.5081632,37.6640234 L63.5081632,40 L61.7391304,40 L61.7391304,32.173913 L65.3118919,32.173913 C65.7720687,32.173913 66.1847669,32.2322559 66.5618562,32.3607007 Z" id="Fill-26" fill="#205A59"></path>
                    <polygon id="Fill-27" fill="#205A59" points="76.3224353 33.7506188 72.173913 33.7506188 72.173913 35.2223917 75.8755944 35.2223917 75.8755944 36.7529632 72.173913 36.7529632 72.173913 38.4232943 76.5217391 38.4232943 76.5217391 40 70.4347826 40 70.4347826 32.173913 76.3224353 32.173913"></polygon>
                    <path d="M87,35.9997936 C87,37.1045516 86.104872,38 85,38 C83.8955409,38 83,37.1045516 83,35.9997936 C83,34.8954484 83.8955409,34 85,34 C86.104872,34 87,34.8954484 87,35.9997936" id="Fill-34" fill="#E57C6B"></path>
                    <path d="M94.748,31.96 L94.748,35.104 L98.264,35.104 L98.264,31.96 L100.076,31.96 L100.076,40 L98.264,40 L98.264,36.772 L94.748,36.772 L94.748,40 L92.936,40 L92.936,31.96 L94.748,31.96 Z M106.648,31.792 C107.284,31.792 107.86,31.9 108.388,32.104 C108.916,32.32 109.372,32.62 109.732,32.992 C110.116,33.364 110.404,33.808 110.608,34.312 C110.812,34.828 110.92,35.38 110.92,35.98 C110.92,36.556 110.812,37.096 110.608,37.6 C110.404,38.116 110.104,38.56 109.732,38.944 C109.36,39.316 108.904,39.616 108.388,39.832 C107.86,40.06 107.284,40.168 106.648,40.168 C106.024,40.168 105.448,40.06 104.932,39.856 C104.416,39.64 103.96,39.34 103.588,38.968 C103.204,38.596 102.904,38.152 102.7,37.636 C102.496,37.12 102.388,36.568 102.388,35.98 C102.388,35.404 102.496,34.864 102.7,34.348 C102.904,33.832 103.204,33.388 103.588,33.016 C103.96,32.644 104.416,32.344 104.932,32.128 C105.448,31.9 106.024,31.792 106.648,31.792 Z M106.648,33.4 C106.264,33.4 105.916,33.472 105.604,33.604 C105.304,33.736 105.04,33.928 104.836,34.156 C104.62,34.384 104.452,34.66 104.344,34.972 C104.236,35.284 104.176,35.62 104.176,35.98 C104.176,36.34 104.236,36.676 104.344,37 C104.452,37.312 104.62,37.588 104.836,37.816 C105.052,38.044 105.316,38.224 105.616,38.368 C105.916,38.488 106.264,38.56 106.648,38.56 C107.044,38.56 107.392,38.488 107.692,38.356 C108.004,38.224 108.268,38.032 108.484,37.792 C108.688,37.564 108.844,37.288 108.964,36.976 C109.06,36.664 109.12,36.328 109.12,35.98 C109.12,35.608 109.06,35.272 108.952,34.96 C108.844,34.636 108.676,34.36 108.46,34.132 C108.256,33.904 107.992,33.724 107.692,33.592 C107.38,33.46 107.032,33.4 106.648,33.4 Z M116.868,31.96 C117.336,31.96 117.756,32.02 118.14,32.152 C118.524,32.284 118.848,32.464 119.136,32.704 C119.4,32.944 119.616,33.232 119.772,33.568 C119.928,33.904 120,34.276 120,34.696 C120,35.248 119.856,35.74 119.568,36.16 C119.28,36.58 118.872,36.904 118.356,37.12 L120.312,40 L118.128,40 L116.652,37.6 L115.032,37.6 L115.032,40 L113.232,40 L113.232,31.96 L116.868,31.96 Z M115.032,36.004 L116.736,36.004 C117.168,36.004 117.516,35.896 117.768,35.68 C118.032,35.464 118.164,35.164 118.164,34.78 C118.164,34.396 118.044,34.096 117.792,33.88 C117.552,33.676 117.216,33.568 116.784,33.568 L115.032,33.568 L115.032,36.004 Z M128.528,31.96 L128.528,33.58 L124.292,33.58 L124.292,35.092 L128.072,35.092 L128.072,36.664 L124.292,36.664 L124.292,38.38 L128.732,38.38 L128.732,40 L122.516,40 L122.516,31.96 L128.528,31.96 Z M137.176,34.204 C136.9,33.952 136.576,33.76 136.204,33.64 C135.844,33.496 135.436,33.436 134.992,33.436 C134.596,33.436 134.248,33.496 133.924,33.616 C133.612,33.748 133.348,33.916 133.12,34.144 C132.892,34.384 132.724,34.648 132.604,34.96 C132.484,35.272 132.424,35.608 132.424,35.98 C132.424,36.364 132.484,36.712 132.604,37.024 C132.736,37.336 132.904,37.6 133.132,37.816 C133.36,38.044 133.624,38.212 133.936,38.344 C134.248,38.464 134.596,38.524 134.968,38.524 C135.424,38.524 135.844,38.44 136.252,38.296 C136.636,38.128 136.996,37.912 137.308,37.612 L138.328,38.872 C137.416,39.736 136.264,40.168 134.872,40.168 C134.248,40.168 133.672,40.072 133.156,39.88 C132.64,39.676 132.196,39.4 131.812,39.04 C131.452,38.668 131.152,38.236 130.948,37.72 C130.744,37.204 130.636,36.64 130.636,36.004 C130.636,35.428 130.732,34.888 130.948,34.372 C131.14,33.856 131.44,33.412 131.824,33.028 C132.208,32.644 132.676,32.344 133.216,32.128 C133.756,31.9 134.38,31.792 135.064,31.792 C135.688,31.792 136.264,31.888 136.78,32.08 C137.296,32.26 137.764,32.536 138.172,32.896 L137.176,34.204 Z M145.392,31.948 L148.716,40 L146.724,40 L146.112,38.404 L142.668,38.404 L142.068,40 L140.112,40 L143.412,31.948 L145.392,31.948 Z M143.256,36.82 L145.524,36.82 L144.456,33.76 L144.336,33.76 L143.256,36.82 Z" id="HORECA" fill="#205A59"></path>
                </g>
            </g>
        </g>
    </g>
</svg>