<?xml version="1.0" encoding="UTF-8"?>
<svg width="149px" height="24px" viewBox="0 0 149 24" version="1.1" xmlns="http://www.w3.org/2000/svg" xmlns:xlink="http://www.w3.org/1999/xlink">
    <!-- Generator: Sketch 51.2 (57519) - http://www.bohemiancoding.com/sketch -->
    <title>Decido-logo-small</title>
    <desc>Created with Sketch.</desc>
    <defs>
        <polygon id="path-1" points="0.200061873 0.0474782609 23.1712375 0.0474782609 23.1712375 22.4559965 0.200061873 22.4559965"></polygon>
    </defs>
    <g id="main" stroke="none" stroke-width="1" fill="none" fill-rule="evenodd">
        <g id="stylemap" transform="translate(-640.000000, -2960.000000)">
            <g id="Page-1-Copy-5" transform="translate(640.000000, 2960.000000)">
                <g id="Page-1">
                    <path d="M12.0970081,6.63535973 C11.1903397,5.78454241 9.69001923,5.09192181 7.59559708,5.09192181 L5.44225948,5.09192181 C5.2160421,5.09192181 5.03254967,5.27640911 5.03254967,5.50486512 L5.03254967,17.8795656 C5.03254967,18.1075683 5.2160421,18.2925089 5.44225948,18.2925089 L7.59559708,18.2925089 C9.69001923,18.2925089 11.1903397,17.5989817 12.0970081,16.717341 C13.0036766,15.8665237 14.0038902,14.4173692 14.0038902,11.7393571 C14.0038902,9.06134497 13.0036766,7.51745377 12.0970081,6.63535973 M15.6292374,20.0254203 C13.847382,21.5375815 11.0657627,22.6086957 7.31451187,22.6086957 L0.66021295,22.6086957 C0.295476777,22.6086957 0,22.3108869 0,21.9432722 L0,1.53544196 C0,1.16782723 0.295476777,0.869565217 0.66021295,0.869565217 L7.31451187,0.869565217 C11.0657627,0.869565217 13.847382,1.94113269 15.6292374,3.48502389 C17.4421246,4.9971851 19.1304348,7.51745377 19.1304348,11.7393571 C19.1304348,15.9608071 17.4421246,18.4815291 15.6292374,20.0254203" id="Fill-1" fill="#E57C6B"></path>
                    <path d="M42.7931165,22.6086957 L29.3807966,22.6086957 C29.0025446,22.6086957 28.6956522,22.3108869 28.6956522,21.9428189 L28.6956522,1.53544196 C28.6956522,1.16782723 29.0025446,0.869565217 29.3807966,0.869565217 L42.5016153,0.869565217 C42.8798672,0.869565217 43.1862933,1.16782723 43.1862933,1.53544196 L43.1862933,4.26830164 C43.1862933,4.63591637 42.8798672,4.93417838 42.5016153,4.93417838 L34.3400481,4.93417838 C34.105448,4.93417838 33.9146896,5.11866567 33.9146896,5.34712168 L33.9146896,8.96298197 C33.9146896,9.19098469 34.105448,9.37637856 34.3400481,9.37637856 L41.9829763,9.37637856 C42.3612283,9.37637856 42.6676543,9.67418728 42.6676543,10.041802 L42.6676543,12.775115 C42.6676543,13.1422764 42.3612283,13.4405384 41.9829763,13.4405384 L34.3400481,13.4405384 C34.105448,13.4405384 33.9146896,13.625479 33.9146896,13.853935 L33.9146896,18.0681325 C33.9146896,18.2965885 34.105448,18.4815291 34.3400481,18.4815291 L42.7931165,18.4815291 C43.1713684,18.4815291 43.4782609,18.7797911 43.4782609,19.1469525 L43.4782609,21.9428189 C43.4782609,22.3108869 43.1713684,22.6086957 42.7931165,22.6086957" id="Fill-3" fill="#E57C6B"></path>
                    <path d="M71.2410269,19.9997189 C71.3699446,20.302161 71.2986767,20.6562286 71.0576369,20.87872 C69.8333724,22.0071675 67.5714109,23.4782609 63.5953884,23.4782609 C57.1903561,23.4782609 52.173913,19.2235115 52.173913,12.1736846 C52.173913,5.09279117 57.2534532,0.869565217 63.5953884,0.869565217 C67.3444431,0.869565217 69.6572453,2.18121404 70.6450094,2.96290374 C70.908746,3.17168936 71.0045264,3.52986863 70.887411,3.84647351 L69.7952418,6.79185838 C69.6590611,7.15963173 69.2105726,7.29120779 68.8991728,7.05455363 C67.9504472,6.33271276 66.0711536,5.31482576 63.8790982,5.31482576 C60.1876933,5.31482576 57.3483257,7.79147093 57.3483257,12.0786575 C57.3483257,16.3653871 60.3138875,18.810052 63.8790982,18.810052 C66.1914465,18.810052 67.9540787,18.0265349 69.1665409,17.0282929 C69.4665924,16.7811309 69.9173505,16.8912345 70.0703268,17.2498706 L71.2410269,19.9997189 Z" id="Fill-5" fill="#E57C6B"></path>
                    <path d="M85.4067496,22.6086957 L81.5502355,22.6086957 C81.1739903,22.6086957 80.8695652,22.3108869 80.8695652,21.9428189 L80.8695652,1.53544196 C80.8695652,1.16782723 81.1739903,0.869565217 81.5502355,0.869565217 L85.4067496,0.869565217 C85.7825315,0.869565217 86.0869565,1.16782723 86.0869565,1.53544196 L86.0869565,21.9428189 C86.0869565,22.3108869 85.7825315,22.6086957 85.4067496,22.6086957" id="Fill-7" fill="#E57C6B"></path>
                    <path d="M109.488312,6.63535973 C108.581644,5.78454241 107.080874,5.09192181 104.986901,5.09192181 L102.833564,5.09192181 C102.606897,5.09192181 102.423854,5.27640911 102.423854,5.50486512 L102.423854,17.8795656 C102.423854,18.1075683 102.606897,18.2925089 102.833564,18.2925089 L104.986901,18.2925089 C107.080874,18.2925089 108.581644,17.5989817 109.488312,16.717341 C110.394981,15.8665237 111.394745,14.4173692 111.394745,11.7393571 C111.394745,9.06134497 110.394981,7.51745377 109.488312,6.63535973 M113.020542,20.0254203 C111.238686,21.5375815 108.456617,22.6086957 104.705366,22.6086957 L98.0510676,22.6086957 C97.6867811,22.6086957 97.3913043,22.3108869 97.3913043,21.9432722 L97.3913043,1.53544196 C97.3913043,1.16782723 97.6867811,0.869565217 98.0510676,0.869565217 L104.705366,0.869565217 C108.456617,0.869565217 111.238686,1.94113269 113.020542,3.48502389 C114.833879,4.9971851 116.521739,7.51745377 116.521739,11.7393571 C116.521739,15.9608071 114.833879,18.4815291 113.020542,20.0254203" id="Fill-9" fill="#E57C6B"></path>
                    <g id="Group-13" transform="translate(125.217391, 0.000000)">
                        <mask id="mask-2" fill="white">
                            <use xlink:href="#path-1"></use>
                        </mask>
                        <g id="Clip-12"></g>
                        <path d="M11.6854465,4.38441391 C8.07656689,4.38441391 5.34631605,6.99345739 5.34631605,11.1417009 C5.34631605,15.2899443 8.07656689,17.9301878 11.6854465,17.9301878 C15.2943261,17.9301878 18.0245769,15.2899443 18.0245769,11.1417009 C18.0245769,7.02465739 15.2943261,4.38441391 11.6854465,4.38441391 M11.6854465,22.4559965 C5.25240301,22.4559965 0.200061873,18.2761009 0.200061873,11.2674052 C0.200061873,4.25916174 5.25240301,0.0471617391 11.6854465,0.0471617391 C18.1189415,0.0471617391 23.1712826,4.25916174 23.1712826,11.2674052 C23.1712826,18.2761009 18.1189415,22.4559965 11.6854465,22.4559965" id="Fill-11" fill="#E57C6B" mask="url(#mask-2)"></path>
                    </g>
                </g>
            </g>
        </g>
    </g>
</svg>