<?xml version="1.0" encoding="UTF-8"?>
<svg width="149px" height="39px" viewBox="0 0 149 39" version="1.1" xmlns="http://www.w3.org/2000/svg" xmlns:xlink="http://www.w3.org/1999/xlink">
    <!-- Generator: Sketch 51.2 (57519) - http://www.bohemiancoding.com/sketch -->
    <title>Decido-logo-dark</title>
    <desc>Created with Sketch.</desc>
    <defs>
        <polygon id="path-1" points="0.200061873 0.0452173913 23.1712375 0.0452173913 23.1712375 21.3866634 0.200061873 21.3866634"></polygon>
        <polygon id="path-3" points="0 38.757764 148.695652 38.757764 148.695652 0.82815735 0 0.82815735"></polygon>
    </defs>
    <g id="main" stroke="none" stroke-width="1" fill="none" fill-rule="evenodd">
        <g id="stylemap" transform="translate(-405.000000, -2952.000000)">
            <g id="Page-1-Copy-3" transform="translate(405.000000, 2952.000000)">
                <g id="Page-1" stroke-width="1">
                    <path d="M12.0970081,6.31939022 C11.1903397,5.50908801 9.69001923,4.84944935 7.59559708,4.84944935 L5.44225948,4.84944935 C5.2160421,4.84944935 5.03254967,5.02515153 5.03254967,5.24272868 L5.03254967,17.0281577 C5.03254967,17.2453032 5.2160421,17.4214371 5.44225948,17.4214371 L7.59559708,17.4214371 C9.69001923,17.4214371 11.1903397,16.760935 12.0970081,15.9212771 C13.0036766,15.1109749 14.0038902,13.7308278 14.0038902,11.1803401 C14.0038902,8.62985235 13.0036766,7.15947978 12.0970081,6.31939022 M15.6292374,19.0718288 C13.847382,20.5119823 11.0657627,21.5320911 7.31451187,21.5320911 L0.66021295,21.5320911 C0.295476777,21.5320911 0,21.2484637 0,20.8983545 L0,1.46232567 C0,1.11221641 0.295476777,0.82815735 0.66021295,0.82815735 L7.31451187,0.82815735 C11.0657627,0.82815735 13.847382,1.8486978 15.6292374,3.31907037 C17.4421246,4.7592239 19.1304348,7.15947978 19.1304348,11.1803401 C19.1304348,15.2007687 17.4421246,17.6014562 15.6292374,19.0718288" id="Fill-1" fill="#E57C6B"></path>
                    <path d="M42.7931165,21.5320911 L29.3807966,21.5320911 C29.0025446,21.5320911 28.6956522,21.2484637 28.6956522,20.8979228 L28.6956522,1.46232567 C28.6956522,1.11221641 29.0025446,0.82815735 29.3807966,0.82815735 L42.5016153,0.82815735 C42.8798672,0.82815735 43.1862933,1.11221641 43.1862933,1.46232567 L43.1862933,4.06504918 C43.1862933,4.41515844 42.8798672,4.6992175 42.5016153,4.6992175 L34.3400481,4.6992175 C34.105448,4.6992175 33.9146896,4.87491969 33.9146896,5.09249684 L33.9146896,8.5361733 C33.9146896,8.75331875 34.105448,8.92988434 34.3400481,8.92988434 L41.9829763,8.92988434 C42.3612283,8.92988434 42.6676543,9.2135117 42.6676543,9.56362096 L42.6676543,12.1667762 C42.6676543,12.5164537 42.3612283,12.8005128 41.9829763,12.8005128 L34.3400481,12.8005128 C34.105448,12.8005128 33.9146896,12.9766467 33.9146896,13.1942238 L33.9146896,17.2077452 C33.9146896,17.4253224 34.105448,17.6014562 34.3400481,17.6014562 L42.7931165,17.6014562 C43.1713684,17.6014562 43.4782609,17.8855153 43.4782609,18.2351929 L43.4782609,20.8979228 C43.4782609,21.2484637 43.1713684,21.5320911 42.7931165,21.5320911" id="Fill-3" fill="#E57C6B"></path>
                    <path d="M71.2410269,19.0473513 C71.3699446,19.3353915 71.2986767,19.6725986 71.0576369,19.8844953 C69.8333724,20.9592071 67.5714109,22.3602484 63.5953884,22.3602484 C57.1903561,22.3602484 52.173913,18.3081062 52.173913,11.5939853 C52.173913,4.8502773 57.2534532,0.82815735 63.5953884,0.82815735 C67.3444431,0.82815735 69.6572453,2.0773467 70.6450094,2.82181309 C70.908746,3.02065653 71.0045264,3.36177964 70.887411,3.66330811 L69.7952418,6.46843655 C69.6590611,6.81869689 69.2105726,6.94400742 68.8991728,6.71862251 C67.9504472,6.03115501 66.0711536,5.06173882 63.8790982,5.06173882 C60.1876933,5.06173882 57.3483257,7.4204485 57.3483257,11.5034833 C57.3483257,15.586083 60.3138875,17.9143352 63.8790982,17.9143352 C66.1914465,17.9143352 67.9540787,17.1681284 69.1665409,16.2174218 C69.4665924,15.9820295 69.9173505,16.08689 70.0703268,16.4284482 L71.2410269,19.0473513 Z" id="Fill-5" fill="#E57C6B"></path>
                    <path d="M85.4067496,21.5320911 L81.5502355,21.5320911 C81.1739903,21.5320911 80.8695652,21.2484637 80.8695652,20.8979228 L80.8695652,1.46232567 C80.8695652,1.11221641 81.1739903,0.82815735 81.5502355,0.82815735 L85.4067496,0.82815735 C85.7825315,0.82815735 86.0869565,1.11221641 86.0869565,1.46232567 L86.0869565,20.8979228 C86.0869565,21.2484637 85.7825315,21.5320911 85.4067496,21.5320911" id="Fill-7" fill="#E57C6B"></path>
                    <path d="M109.488312,6.31939022 C108.581644,5.50908801 107.080874,4.84944935 104.986901,4.84944935 L102.833564,4.84944935 C102.606897,4.84944935 102.423854,5.02515153 102.423854,5.24272868 L102.423854,17.0281577 C102.423854,17.2453032 102.606897,17.4214371 102.833564,17.4214371 L104.986901,17.4214371 C107.080874,17.4214371 108.581644,16.760935 109.488312,15.9212771 C110.394981,15.1109749 111.394745,13.7308278 111.394745,11.1803401 C111.394745,8.62985235 110.394981,7.15947978 109.488312,6.31939022 M113.020542,19.0718288 C111.238686,20.5119823 108.456617,21.5320911 104.705366,21.5320911 L98.0510676,21.5320911 C97.6867811,21.5320911 97.3913043,21.2484637 97.3913043,20.8983545 L97.3913043,1.46232567 C97.3913043,1.11221641 97.6867811,0.82815735 98.0510676,0.82815735 L104.705366,0.82815735 C108.456617,0.82815735 111.238686,1.8486978 113.020542,3.31907037 C114.833879,4.7592239 116.521739,7.15947978 116.521739,11.1803401 C116.521739,15.2007687 114.833879,17.6014562 113.020542,19.0718288" id="Fill-9" fill="#E57C6B"></path>
                    <g id="Group-13" transform="translate(125.217391, 0.000000)">
                        <mask id="mask-2" fill="white">
                            <use xlink:href="#path-1"></use>
                        </mask>
                        <g id="Clip-12"></g>
                        <path d="M11.6854465,4.1756323 C8.07656689,4.1756323 5.34631605,6.66043561 5.34631605,10.6111437 C5.34631605,14.5618518 8.07656689,17.0763694 11.6854465,17.0763694 C15.2943261,17.0763694 18.0245769,14.5618518 18.0245769,10.6111437 C18.0245769,6.6901499 15.2943261,4.1756323 11.6854465,4.1756323 M11.6854465,21.3866634 C5.25240301,21.3866634 0.200061873,17.4058104 0.200061873,10.7308621 C0.200061873,4.05634451 5.25240301,0.044915942 11.6854465,0.044915942 C18.1189415,0.044915942 23.1712826,4.05634451 23.1712826,10.7308621 C23.1712826,17.4058104 18.1189415,21.3866634 11.6854465,21.3866634" id="Fill-11" fill="#E57C6B" mask="url(#mask-2)"></path>
                    </g>
                    <polygon id="Fill-14" fill="#F2E4D1" points="6.08695652 32.1434464 1.83130832 32.1434464 1.83130832 33.7230383 5.48099131 33.7230383 5.48099131 35.1914943 1.83130832 35.1914943 1.83130832 38.0952381 0 38.0952381 0 30.6418219 6.08695652 30.6418219"></polygon>
                    <path d="M10.4287818,34.706286 C10.4287818,35.2948802 10.5781359,35.7636458 10.8763995,36.1121611 C11.1635505,36.450128 11.6000556,36.6243856 12.173913,36.6243856 C12.7593277,36.6243856 13.1958328,36.4606763 13.4825392,36.1341015 C13.7696902,35.818075 13.9185998,35.3493093 13.9185998,34.7282264 L13.9185998,30.6418219 L15.6521739,30.6418219 L15.6521739,34.6957377 C15.6521739,35.2075404 15.5832755,35.6649139 15.4228087,36.0902206 C15.2850118,36.5045572 15.0552021,36.8640426 14.7569385,37.1585506 C14.4697875,37.4526367 14.1021809,37.6813235 13.6776775,37.8555811 C13.2416169,38.0078983 12.7362134,38.0952381 12.173913,38.0952381 C11.6111682,38.0952381 11.1173219,38.0192905 10.6928184,37.8555811 C10.2567579,37.7032639 9.88915127,37.4851255 9.59088762,37.1800691 C9.30373663,36.8965313 9.07437144,36.5370459 8.92501736,36.1227093 C8.77566329,35.7087947 8.69565217,35.240451 8.69565217,34.7282264 L8.69565217,30.6418219 L10.4287818,30.6418219 L10.4287818,34.706286 Z" id="Fill-16" fill="#F2E4D1"></path>
                    <path d="M21.703978,34.3904974 C22.1285459,34.3904974 22.4704828,34.2905672 22.7179192,34.090276 C22.9772251,33.8899849 23.1068781,33.6117309 23.1068781,33.2559448 C23.1068781,32.8997281 22.9890948,32.6219048 22.7412019,32.4216136 C22.5056352,32.2325215 22.1755679,32.1325913 21.7510001,32.1325913 L20.0299024,32.1325913 L20.0299024,34.3904974 L21.703978,34.3904974 Z M23.0835954,30.819715 C23.4606847,30.9420433 23.7788823,31.1087373 24.0619276,31.3309959 C24.3212335,31.5536852 24.5335175,31.8207401 24.6869097,32.1325913 C24.840302,32.4435811 24.9106068,32.7885988 24.9106068,33.177982 C24.9106068,33.6896937 24.7695407,34.1458407 24.4864954,34.535224 C24.2034502,34.9246072 23.8026216,35.2248286 23.2954228,35.4251198 L25.2173913,38.0952381 L23.0717257,38.0952381 L21.6213471,35.8704985 L20.0299024,35.8704985 L20.0299024,38.0952381 L18.2608696,38.0952381 L18.2608696,30.6418219 L21.833631,30.6418219 C22.2933513,30.6418219 22.7060495,30.6973866 23.0835954,30.819715 Z" id="Fill-18" fill="#F2E4D1"></path>
                    <polygon id="Fill-20" fill="#F2E4D1" points="34.7826087 38.0952381 33.0578365 38.0952381 29.5050017 33.3339076 29.5050017 38.0952381 27.826087 38.0952381 27.826087 30.6418219 29.37856 30.6418219 33.1152696 35.6702073 33.1152696 30.6418219 34.7826087 30.6418219"></polygon>
                    <mask id="mask-4" fill="white">
                        <use xlink:href="#path-3"></use>
                    </mask>
                    <g id="Clip-23"></g>
                    <polygon id="Fill-22" fill="#F2E4D1" mask="url(#mask-4)" points="37.3913043 38.0952381 39.1304348 38.0952381 39.1304348 30.6418219 37.3913043 30.6418219"></polygon>
                    <polygon id="Fill-24" fill="#F2E4D1" mask="url(#mask-4)" points="48.6956522 32.1545587 46.0709264 32.1545587 46.0709264 38.0952381 44.3638562 38.0952381 44.3638562 32.1545587 41.7391304 32.1545587 41.7391304 30.6418219 48.6956522 30.6418219"></polygon>
                    <path d="M53.0374774,34.706286 C53.0374774,35.2948802 53.1868315,35.7636458 53.4855397,36.1121611 C53.7722461,36.450128 54.2087512,36.6243856 54.7826087,36.6243856 C55.3680233,36.6243856 55.8045284,36.4606763 56.0916794,36.1341015 C56.3783859,35.818075 56.52774,35.3493093 56.52774,34.7282264 L56.52774,30.6418219 L58.2608696,30.6418219 L58.2608696,34.6957377 C58.2608696,35.2075404 58.1924156,35.6649139 58.0315044,36.0902206 C57.8937075,36.5045572 57.6643423,36.8640426 57.3656341,37.1585506 C57.0784831,37.4526367 56.711321,37.6813235 56.2863731,37.8555811 C55.8503125,38.0078983 55.344909,38.0952381 54.7826087,38.0952381 C54.2203084,38.0952381 53.726462,38.0192905 53.3015141,37.8555811 C52.8654535,37.7032639 52.4982914,37.4851255 52.1995833,37.1800691 C51.9128768,36.8965313 51.6830671,36.5370459 51.533713,36.1227093 C51.3843589,35.7087947 51.3043478,35.240451 51.3043478,34.7282264 L51.3043478,30.6418219 L53.0374774,30.6418219 L53.0374774,34.706286 Z" id="Fill-25" fill="#F2E4D1" mask="url(#mask-4)"></path>
                    <path d="M65.1822389,34.3904974 C65.6068068,34.3904974 65.9487437,34.2905672 66.19618,34.090276 C66.455486,33.8899849 66.585139,33.6117309 66.585139,33.2559448 C66.585139,32.8997281 66.4673556,32.6219048 66.2199193,32.4216136 C65.9838961,32.2325215 65.6538288,32.1325913 65.2297175,32.1325913 L63.5081632,32.1325913 L63.5081632,34.3904974 L65.1822389,34.3904974 Z M66.5618562,30.819715 C66.9394021,30.9420433 67.2571432,31.1087373 67.540645,31.3309959 C67.7994944,31.5536852 68.0117783,31.8207401 68.1651706,32.1325913 C68.3185629,32.4435811 68.3893242,32.7885988 68.3893242,33.177982 C68.3893242,33.6896937 68.2478015,34.1458407 67.9647563,34.535224 C67.6817111,34.9246072 67.2808825,35.2248286 66.7736836,35.4251198 L68.6956522,38.0952381 L66.5499866,38.0952381 L65.099608,35.8704985 L63.5081632,35.8704985 L63.5081632,38.0952381 L61.7391304,38.0952381 L61.7391304,30.6418219 L65.3118919,30.6418219 C65.7720687,30.6418219 66.1847669,30.6973866 66.5618562,30.819715 Z" id="Fill-26" fill="#F2E4D1" mask="url(#mask-4)"></path>
                    <polygon id="Fill-27" fill="#F2E4D1" mask="url(#mask-4)" points="76.3224353 32.1434464 72.173913 32.1434464 72.173913 33.5451349 75.8755944 33.5451349 75.8755944 35.0028221 72.173913 35.0028221 72.173913 36.5936136 76.5217391 36.5936136 76.5217391 38.0952381 70.4347826 38.0952381 70.4347826 30.6418219 76.3224353 30.6418219"></polygon>
                    <path d="M86.9565217,34.2648159 C86.9565217,35.3055299 86.0711234,36.1490683 84.9782609,36.1490683 C83.8858067,36.1490683 83,35.3055299 83,34.2648159 C83,33.2244908 83.8858067,32.3809524 84.9782609,32.3809524 C86.0711234,32.3809524 86.9565217,33.2244908 86.9565217,34.2648159" id="Fill-34" fill="#E57C6B" mask="url(#mask-4)"></path>
                </g>
                <path d="M94.748,30.4380952 L94.748,33.432381 L98.264,33.432381 L98.264,30.4380952 L100.076,30.4380952 L100.076,38.0952381 L98.264,38.0952381 L98.264,35.0209524 L94.748,35.0209524 L94.748,38.0952381 L92.936,38.0952381 L92.936,30.4380952 L94.748,30.4380952 Z M106.648,30.2780952 C107.284,30.2780952 107.86,30.3809524 108.388,30.5752381 C108.916,30.7809524 109.372,31.0666667 109.732,31.4209524 C110.116,31.7752381 110.404,32.1980952 110.608,32.6780952 C110.812,33.1695238 110.92,33.6952381 110.92,34.2666667 C110.92,34.8152381 110.812,35.3295238 110.608,35.8095238 C110.404,36.3009524 110.104,36.7238095 109.732,37.0895238 C109.36,37.4438095 108.904,37.7295238 108.388,37.9352381 C107.86,38.152381 107.284,38.2552381 106.648,38.2552381 C106.024,38.2552381 105.448,38.152381 104.932,37.9580952 C104.416,37.752381 103.96,37.4666667 103.588,37.112381 C103.204,36.7580952 102.904,36.3352381 102.7,35.8438095 C102.496,35.352381 102.388,34.8266667 102.388,34.2666667 C102.388,33.7180952 102.496,33.2038095 102.7,32.712381 C102.904,32.2209524 103.204,31.7980952 103.588,31.4438095 C103.96,31.0895238 104.416,30.8038095 104.932,30.5980952 C105.448,30.3809524 106.024,30.2780952 106.648,30.2780952 Z M106.648,31.8095238 C106.264,31.8095238 105.916,31.8780952 105.604,32.0038095 C105.304,32.1295238 105.04,32.312381 104.836,32.5295238 C104.62,32.7466667 104.452,33.0095238 104.344,33.3066667 C104.236,33.6038095 104.176,33.9238095 104.176,34.2666667 C104.176,34.6095238 104.236,34.9295238 104.344,35.2380952 C104.452,35.5352381 104.62,35.7980952 104.836,36.0152381 C105.052,36.232381 105.316,36.4038095 105.616,36.5409524 C105.916,36.6552381 106.264,36.7238095 106.648,36.7238095 C107.044,36.7238095 107.392,36.6552381 107.692,36.5295238 C108.004,36.4038095 108.268,36.2209524 108.484,35.992381 C108.688,35.7752381 108.844,35.512381 108.964,35.2152381 C109.06,34.9180952 109.12,34.5980952 109.12,34.2666667 C109.12,33.912381 109.06,33.592381 108.952,33.2952381 C108.844,32.9866667 108.676,32.7238095 108.46,32.5066667 C108.256,32.2895238 107.992,32.1180952 107.692,31.992381 C107.38,31.8666667 107.032,31.8095238 106.648,31.8095238 Z M116.868,30.4380952 C117.336,30.4380952 117.756,30.4952381 118.14,30.6209524 C118.524,30.7466667 118.848,30.9180952 119.136,31.1466667 C119.4,31.3752381 119.616,31.6495238 119.772,31.9695238 C119.928,32.2895238 120,32.6438095 120,33.0438095 C120,33.5695238 119.856,34.0380952 119.568,34.4380952 C119.28,34.8380952 118.872,35.1466667 118.356,35.352381 L120.312,38.0952381 L118.128,38.0952381 L116.652,35.8095238 L115.032,35.8095238 L115.032,38.0952381 L113.232,38.0952381 L113.232,30.4380952 L116.868,30.4380952 Z M115.032,34.2895238 L116.736,34.2895238 C117.168,34.2895238 117.516,34.1866667 117.768,33.9809524 C118.032,33.7752381 118.164,33.4895238 118.164,33.1238095 C118.164,32.7580952 118.044,32.472381 117.792,32.2666667 C117.552,32.072381 117.216,31.9695238 116.784,31.9695238 L115.032,31.9695238 L115.032,34.2895238 Z M128.528,30.4380952 L128.528,31.9809524 L124.292,31.9809524 L124.292,33.4209524 L128.072,33.4209524 L128.072,34.9180952 L124.292,34.9180952 L124.292,36.552381 L128.732,36.552381 L128.732,38.0952381 L122.516,38.0952381 L122.516,30.4380952 L128.528,30.4380952 Z M137.176,32.5752381 C136.9,32.3352381 136.576,32.152381 136.204,32.0380952 C135.844,31.9009524 135.436,31.8438095 134.992,31.8438095 C134.596,31.8438095 134.248,31.9009524 133.924,32.0152381 C133.612,32.1409524 133.348,32.3009524 133.12,32.5180952 C132.892,32.7466667 132.724,32.9980952 132.604,33.2952381 C132.484,33.592381 132.424,33.912381 132.424,34.2666667 C132.424,34.632381 132.484,34.9638095 132.604,35.2609524 C132.736,35.5580952 132.904,35.8095238 133.132,36.0152381 C133.36,36.232381 133.624,36.392381 133.936,36.5180952 C134.248,36.632381 134.596,36.6895238 134.968,36.6895238 C135.424,36.6895238 135.844,36.6095238 136.252,36.472381 C136.636,36.312381 136.996,36.1066667 137.308,35.8209524 L138.328,37.0209524 C137.416,37.8438095 136.264,38.2552381 134.872,38.2552381 C134.248,38.2552381 133.672,38.1638095 133.156,37.9809524 C132.64,37.7866667 132.196,37.5238095 131.812,37.1809524 C131.452,36.8266667 131.152,36.4152381 130.948,35.9238095 C130.744,35.432381 130.636,34.8952381 130.636,34.2895238 C130.636,33.7409524 130.732,33.2266667 130.948,32.7352381 C131.14,32.2438095 131.44,31.8209524 131.824,31.4552381 C132.208,31.0895238 132.676,30.8038095 133.216,30.5980952 C133.756,30.3809524 134.38,30.2780952 135.064,30.2780952 C135.688,30.2780952 136.264,30.3695238 136.78,30.552381 C137.296,30.7238095 137.764,30.9866667 138.172,31.3295238 L137.176,32.5752381 Z M145.392,30.4266667 L148.716,38.0952381 L146.724,38.0952381 L146.112,36.5752381 L142.668,36.5752381 L142.068,38.0952381 L140.112,38.0952381 L143.412,30.4266667 L145.392,30.4266667 Z M143.256,35.0666667 L145.524,35.0666667 L144.456,32.152381 L144.336,32.152381 L143.256,35.0666667 Z" id="HORECA" fill="#F2E4D1"></path>
            </g>
        </g>
    </g>
</svg>