<svg width="16" height="18" viewBox="0 0 16 18" fill="none" xmlns="http://www.w3.org/2000/svg">
<g clip-path="url(#clip0)">
<g opacity="0.8">
<g opacity="0.8">
<g opacity="0.8">
<g opacity="0.8">
<g opacity="0.8">
<path opacity="0.8" fill-rule="evenodd" clip-rule="evenodd" d="M1.27362 3.8147e-06C0.721336 3.8147e-06 0.273621 0.447719 0.273621 1V17C0.273621 17.5523 0.721336 18 1.27362 18H14.2736C14.8259 18 15.2736 17.5523 15.2736 17V5.46899C15.2736 5.20712 15.1709 4.9557 14.9875 4.76875L10.6042 0.299768C10.4161 0.108033 10.1588 3.8147e-06 9.89025 3.8147e-06H1.27362ZM9.32797 1H1.27362V17H14.2736L14.2736 6.01712H10.828C9.99955 6.01712 9.32797 5.34555 9.32797 4.51712V1ZM13.8304 5.01712L10.328 1.44628V4.51712C10.328 4.79326 10.5518 5.01712 10.828 5.01712H13.8304ZM4.62717 11.182C4.43191 10.9867 4.11533 10.9867 3.92007 11.182C3.72481 11.3772 3.72481 11.6938 3.92007 11.8891L7.4556 15.4246C7.65086 15.6199 7.96745 15.6199 8.16271 15.4246L11.6982 11.8891C11.8935 11.6938 11.8935 11.3772 11.6982 11.182C11.503 10.9867 11.1864 10.9867 10.9911 11.182L8.27362 13.8995V3.5C8.27362 3.22386 8.04976 3 7.77362 3C7.49748 3 7.27362 3.22386 7.27362 3.5V13.8284L4.62717 11.182Z" fill="#E57C6B"/>
</g>
</g>
</g>
</g>
</g>
</g>
<defs>
<clipPath id="clip0">
<rect width="16" height="18" fill="white"/>
</clipPath>
</defs>
</svg>
