<svg width="1385" height="805" viewBox="0 0 1385 805" fill="none" xmlns="http://www.w3.org/2000/svg">
<mask id="mask0" mask-type="alpha" maskUnits="userSpaceOnUse" x="578" y="264" width="541" height="541">
<circle cx="848.5" cy="534.5" r="270.5" fill="#E8705F"/>
</mask>
<g mask="url(#mask0)">
<rect width="1319" height="212" transform="matrix(1 0 0 -1 56 476)" fill="#E8705F"/>
</g>
<mask id="mask1" mask-type="alpha" maskUnits="userSpaceOnUse" x="258" y="270" width="1127" height="282">
<path d="M1086.5 393C1290.9 393 1359.5 465.333 1385 521.5L380 551.5C380 504.167 258 446.2 258 425C376 425 608 341.5 674.5 270C775.5 360.5 882.1 393 1086.5 393Z" fill="#154E4E"/>
</mask>
<g mask="url(#mask1)">
<rect width="1018" height="294" transform="matrix(-1 0 0 1 1276 270)" fill="#205A59"/>
</g>
<mask id="mask2" mask-type="alpha" maskUnits="userSpaceOnUse" x="258" y="270" width="1127" height="282">
<path d="M1086.5 393C1290.9 393 1359.5 465.333 1385 521.5L380 551.5C380 504.167 258 446.2 258 425C376 425 608 341.5 674.5 270C775.5 360.5 882.1 393 1086.5 393Z" fill="#852A2A"/>
</mask>
<g mask="url(#mask2)">
<path d="M674.5 370C753.7 362.8 701 295.667 668 263H730.5L1105.5 426C937.667 427.5 592.4 429.6 554 426C506 421.5 575.5 379 674.5 370Z" fill="#F99C90"/>
</g>
<path d="M1034.32 188.298C1051.65 207.256 1046.87 239.827 1046.87 239.827C1046.87 239.827 1014 241.66 996.676 222.702C979.351 203.744 984.132 171.174 984.132 171.174C984.132 171.174 1017 169.34 1034.32 188.298Z" fill="#F2E4D1"/>
<mask id="mask3" mask-type="alpha" maskUnits="userSpaceOnUse" x="965" y="153" width="101" height="105">
<path d="M1034.32 188.298C1051.65 207.256 1046.87 239.827 1046.87 239.827C1046.87 239.827 1014 241.66 996.676 222.702C979.351 203.744 984.132 171.174 984.132 171.174C984.132 171.174 1017 169.34 1034.32 188.298Z" fill="#C4C4C4"/>
</mask>
<g mask="url(#mask3)">
<rect x="984.501" y="170.836" width="37" height="93" transform="rotate(-42.4214 984.501 170.836)" fill="#DECDB5"/>
</g>
<path d="M1075.12 168.141C1072.14 188.144 1049.86 201.399 1049.86 201.399C1049.86 201.399 1032.42 182.222 1035.4 162.219C1038.38 142.216 1060.66 128.961 1060.66 128.961C1060.66 128.961 1078.11 148.138 1075.12 168.141Z" fill="#F2E4D1"/>
<mask id="mask4" mask-type="alpha" maskUnits="userSpaceOnUse" x="1030" y="126" width="51" height="79">
<path d="M1075.12 168.141C1072.14 188.144 1049.86 201.399 1049.86 201.399C1049.86 201.399 1032.42 182.222 1035.4 162.219C1038.38 142.216 1060.66 128.961 1060.66 128.961C1060.66 128.961 1078.11 148.138 1075.12 168.141Z" fill="#C4C4C4"/>
</mask>
<g mask="url(#mask4)">
<rect x="1061.05" y="129.019" width="29.1378" height="73.2383" transform="rotate(8.47934 1061.05 129.019)" fill="#DECDB5"/>
</g>
<path d="M825.004 258.511C845.292 274.257 846.103 307.166 846.103 307.166C846.103 307.166 814.022 314.546 793.734 298.8C773.446 283.054 772.635 250.145 772.635 250.145C772.635 250.145 804.716 242.765 825.004 258.511Z" fill="#F2E4D1"/>
<mask id="mask5" mask-type="alpha" maskUnits="userSpaceOnUse" x="757" y="230" width="105" height="98">
<path d="M825.004 258.511C845.292 274.257 846.103 307.166 846.103 307.166C846.103 307.166 814.022 314.546 793.734 298.8C773.446 283.054 772.635 250.145 772.635 250.145C772.635 250.145 804.716 242.765 825.004 258.511Z" fill="#C4C4C4"/>
</mask>
<g mask="url(#mask5)">
<rect x="772.941" y="249.75" width="37" height="93" transform="rotate(-52.1836 772.941 249.75)" fill="#DECDB5"/>
</g>
<path d="M848.97 115.5C829.657 124.613 823.049 151.178 823.049 151.178C823.049 151.178 847.754 162.967 867.067 153.854C886.381 144.741 892.988 118.177 892.988 118.177C892.988 118.177 868.283 106.388 848.97 115.5Z" fill="#F2E4D1"/>
<mask id="mask6" mask-type="alpha" maskUnits="userSpaceOnUse" x="823" y="112" width="70" height="46">
<path d="M848.97 115.5C829.657 124.613 823.049 151.178 823.049 151.178C823.049 151.178 847.754 162.967 867.067 153.854C886.381 144.741 892.988 118.177 892.988 118.177C892.988 118.177 868.283 106.388 848.97 115.5Z" fill="#C4C4C4"/>
</mask>
<g mask="url(#mask6)">
<rect width="30.7674" height="77.3343" transform="matrix(-0.42673 -0.904379 -0.904379 0.42673 892.812 117.801)" fill="#DECDB5"/>
</g>
<path d="M875.223 241.699C860.188 262.519 868.674 294.326 868.674 294.326C868.674 294.326 901.535 292.376 916.569 271.556C931.604 250.735 923.119 218.928 923.119 218.928C923.119 218.928 890.257 220.878 875.223 241.699Z" fill="#F2E4D1"/>
<mask id="mask7" mask-type="alpha" maskUnits="userSpaceOnUse" x="848" y="204" width="96" height="106">
<path d="M875.223 241.699C860.188 262.519 868.674 294.326 868.674 294.326C868.674 294.326 901.535 292.376 916.569 271.556C931.604 250.735 923.119 218.928 923.119 218.928C923.119 218.928 890.257 220.878 875.223 241.699Z" fill="#C4C4C4"/>
</mask>
<g mask="url(#mask7)">
<rect width="37" height="93" transform="matrix(-0.810723 -0.58543 -0.58543 0.810723 922.713 218.636)" fill="#DECDB5"/>
</g>
<path d="M830.128 38.9308C844.172 60.4315 834.208 91.8066 834.208 91.8066C834.208 91.8066 801.474 88.322 787.43 66.8212C773.385 45.3204 783.349 13.9454 783.349 13.9454C783.349 13.9454 816.083 17.43 830.128 38.9308Z" fill="#F2E4D1"/>
<mask id="mask8" mask-type="alpha" maskUnits="userSpaceOnUse" x="762" y="0" width="94" height="106">
<path d="M830.128 38.9308C844.172 60.4315 834.208 91.8066 834.208 91.8066C834.208 91.8066 801.474 88.322 787.43 66.8212C773.385 45.3204 783.349 13.9454 783.349 13.9454C783.349 13.9454 816.083 17.43 830.128 38.9308Z" fill="#C4C4C4"/>
</mask>
<g mask="url(#mask8)">
<rect x="783.768" y="13.6719" width="37" height="93" transform="rotate(-33.1526 783.768 13.6719)" fill="#DECDB5"/>
</g>
<path d="M860.467 70.3365C847.507 79.9112 846.507 100.542 846.507 100.542C846.507 100.542 866.521 105.65 879.482 96.0752C892.442 86.5006 893.442 65.8694 893.442 65.8694C893.442 65.8694 873.428 60.7619 860.467 70.3365Z" fill="#F2E4D1"/>
<mask id="mask9" mask-type="alpha" maskUnits="userSpaceOnUse" x="837" y="53" width="66" height="61">
<path d="M860.467 70.3365C847.507 79.9112 846.507 100.542 846.507 100.542C846.507 100.542 866.521 105.65 879.482 96.0752C892.442 86.5006 893.442 65.8694 893.442 65.8694C893.442 65.8694 873.428 60.7619 860.467 70.3365Z" fill="#C4C4C4"/>
</mask>
<g mask="url(#mask9)">
<rect width="23.2159" height="58.3535" transform="matrix(-0.594187 -0.804327 -0.804327 0.594187 893.255 65.6167)" fill="#DECDB5"/>
</g>
<path d="M848.265 214.667C843.148 229.946 854.172 247.414 854.172 247.414C854.172 247.414 873.492 240.108 878.609 224.828C883.726 209.548 872.702 192.081 872.702 192.081C872.702 192.081 853.382 199.387 848.265 214.667Z" fill="#F2E4D1"/>
<mask id="mask10" mask-type="alpha" maskUnits="userSpaceOnUse" x="839" y="187" width="49" height="66">
<path d="M848.265 214.667C843.148 229.946 854.172 247.414 854.172 247.414C854.172 247.414 873.492 240.108 878.609 224.828C883.726 209.548 872.702 192.081 872.702 192.081C872.702 192.081 853.382 199.387 848.265 214.667Z" fill="#C4C4C4"/>
</mask>
<g mask="url(#mask10)">
<rect width="23.2159" height="58.3535" transform="matrix(-0.948242 -0.317549 -0.317549 0.948242 872.404 191.981)" fill="#DECDB5"/>
</g>
<path d="M782 454C782 454 862.743 423.514 861.995 330.775C861.247 238.036 805.155 241.204 805.156 183.734C805.158 126.263 837.575 104 837.575 104" stroke="#F2E4D1" stroke-width="10"/>
<path d="M1007.87 259.988C1150.64 103.273 1205.3 161.415 1276 128V539H238V500.016C309.534 467.344 397.877 405.787 558.654 396.988C719.432 388.189 865.102 416.702 1007.87 259.988Z" fill="#174E4E"/>
<path d="M0 411H1276V597H0V411Z" fill="#174E4E"/>
</svg>
