<svg width="984" height="413" viewBox="0 0 984 413" fill="none" xmlns="http://www.w3.org/2000/svg">
<path d="M328.068 375C376.226 300.392 460.096 251 555.501 251C650.907 251 734.777 300.392 782.934 375H328.068Z" fill="#E8705F"/>
<path d="M793.501 380C589.101 380 482.502 347.5 381.502 257C315.002 328.5 187.002 398 69.0021 398C69.0021 444.833 69.002 355.667 69.002 402.5L983.001 400.5C983.001 384 936.959 380 793.501 380Z" fill="#205A59"/>
<path d="M381.501 356.999C454.027 350.406 415.946 293.554 383.673 258.935C476.5 335.5 568.857 372.856 734.211 378.969L768.792 394H254.081C273.171 379.913 322.01 362.407 381.501 356.999Z" fill="#F99C90"/>
<path d="M537.128 25.9302C551.173 47.431 541.209 78.806 541.209 78.806C541.209 78.806 508.475 75.3214 494.43 53.8206C480.386 32.3198 490.35 0.944824 490.35 0.944824C490.35 0.944824 523.084 4.42942 537.128 25.9302Z" fill="#F2E4D1"/>
<path d="M782.124 155.14C779.142 175.144 756.862 188.398 756.862 188.398C756.862 188.398 739.418 169.221 742.4 149.218C745.382 129.215 767.662 115.96 767.662 115.96C767.662 115.96 785.106 135.137 782.124 155.14Z" fill="#F2E4D1"/>
<path d="M741.325 175.298C758.649 194.256 753.868 226.826 753.868 226.826C753.868 226.826 721 228.659 703.676 209.701C686.352 190.743 691.133 158.173 691.133 158.173C691.133 158.173 724.001 156.34 741.325 175.298Z" fill="#F2E4D1"/>
<path d="M553.104 294.165C553.104 294.165 552.292 261.256 532.005 245.51C511.717 229.764 479.636 237.144 479.636 237.144C479.636 237.144 480.447 270.053 500.735 285.799C521.023 301.545 553.104 294.165 553.104 294.165Z" fill="#F2E4D1"/>
<path d="M555.971 102.5C536.658 111.613 530.05 138.177 530.05 138.177C530.05 138.177 554.755 149.967 574.068 140.854C593.381 131.741 599.989 105.176 599.989 105.176C599.989 105.176 575.284 93.387 555.971 102.5Z" fill="#F2E4D1"/>
<path d="M575.674 281.325C575.674 281.325 567.189 249.518 582.223 228.698C597.258 207.877 630.119 205.927 630.119 205.927C630.119 205.927 638.605 237.734 623.57 258.554C608.536 279.375 575.674 281.325 575.674 281.325Z" fill="#F2E4D1"/>
<path d="M553.508 87.5418C553.508 87.5418 554.507 66.9106 567.468 57.3359C580.429 47.7613 600.443 52.8688 600.443 52.8688C600.443 52.8688 599.443 73.5 586.482 83.0746C573.522 92.6493 553.508 87.5418 553.508 87.5418Z" fill="#F2E4D1"/>
<path d="M555.266 201.666C550.149 216.946 561.173 234.413 561.173 234.413C561.173 234.413 580.493 227.107 585.61 211.828C590.727 196.548 579.703 179.08 579.703 179.08C579.703 179.08 560.383 186.386 555.266 201.666Z" fill="#F2E4D1"/>
<path d="M532.587 111.997C524.964 123.988 517.158 142.998 517.157 170.733C517.157 194.275 526.998 206.494 539.246 221.7C540.871 223.717 542.537 225.786 544.229 227.941C551.421 237.104 558.834 247.637 564.452 261.927C570.071 276.218 573.804 294.027 573.996 317.734C574.256 349.95 564.991 374.984 552.561 394H540.398C553.739 375.85 564.264 351.013 563.996 317.815C563.813 295.152 560.254 278.58 555.146 265.586C550.037 252.592 543.286 242.937 536.362 234.115C534.764 232.079 533.144 230.077 531.528 228.081C519.209 212.859 507.157 197.968 507.157 170.733C507.158 140.998 515.561 120.141 524.148 106.633C528.428 99.8988 532.731 95.0276 536.007 91.809C537.646 90.1996 539.03 89.0019 540.028 88.1895C540.528 87.7832 540.931 87.473 541.223 87.2556C541.369 87.1469 541.486 87.0613 541.574 86.9985L541.638 86.9533L541.683 86.9213L541.72 86.8954L541.735 86.8856L541.741 86.8815C541.743 86.8796 541.746 86.8779 544.576 90.9995C547.407 95.1211 547.409 95.1196 547.411 95.1181L547.392 95.1317C547.358 95.1567 547.293 95.2032 547.202 95.2715C547.018 95.4083 546.725 95.6325 546.338 95.9473C545.564 96.5769 544.415 97.5675 543.015 98.9432C540.213 101.695 536.411 105.981 532.587 111.997Z" fill="#F2E4D1"/>
<path d="M491 1.02539L541.396 78.1783C542.701 73.6543 550.005 45.6423 537.129 25.9301C524.253 6.21783 495.667 1.64909 491 1.02539Z" fill="#DECDB5"/>
<path d="M768.004 116.348L757.303 188.126C760.439 186.144 779.391 173.478 782.125 155.14C784.859 136.802 770.425 119.158 768.004 116.348Z" fill="#DECDB5"/>
<path d="M741.325 175.297C757.207 192.678 754.511 221.501 753.952 226.176L691.787 158.148C696.494 158.012 725.442 157.917 741.325 175.297Z" fill="#DECDB5"/>
<path d="M553.076 293.511L480.276 237.008C484.891 236.076 513.405 231.074 532.005 245.51C550.605 259.946 552.834 288.809 553.076 293.511Z" fill="#DECDB5"/>
<path d="M599.495 104.95L530.191 137.651C531.237 133.88 538.265 110.855 555.972 102.499C573.68 94.144 595.92 103.36 599.495 104.95Z" fill="#DECDB5"/>
<path d="M575.518 280.69C574.427 276.109 568.441 247.786 582.225 228.698C596.009 209.61 624.776 206.383 629.468 205.979L575.518 280.69Z" fill="#DECDB5"/>
<path d="M553.534 87.13C553.757 84.1809 555.586 66.1125 567.468 57.3353C579.349 48.5581 597.157 52.1192 600.041 52.7733L553.534 87.13Z" fill="#DECDB5"/>
<path d="M555.266 201.666C550.575 215.674 559.45 231.522 560.96 234.062L579.321 179.232C576.587 180.351 559.957 187.657 555.266 201.666Z" fill="#DECDB5"/>
<path d="M920.222 128.683C871.062 132.908 814.359 137.782 714.872 246.987C595.904 377.576 474.922 379.547 344.863 381.667C318.843 382.09 292.459 382.521 265.655 383.987C227.638 386.068 145.782 389.766 105.5 393.5C68.8893 396.894 0 403 0 403H983.001V115C961.567 125.129 941.608 126.845 920.222 128.683Z" fill="#174E4E"/>
</svg>
