<?xml version="1.0" encoding="utf-8"?>
<!-- Generator: Adobe Illustrator 16.0.1, SVG Export Plug-In . SVG Version: 6.00 Build 0)  -->
<!DOCTYPE svg PUBLIC "-//W3C//DTD SVG 1.1//EN" "http://www.w3.org/Graphics/SVG/1.1/DTD/svg11.dtd">
<svg version="1.1" id="Слой_1" xmlns="http://www.w3.org/2000/svg" xmlns:xlink="http://www.w3.org/1999/xlink" x="0px" y="0px"
	 width="1024.19px" height="432.214px" viewBox="21.752 -56.875 1024.19 432.214"
	 enable-background="new 21.752 -56.875 1024.19 432.214" xml:space="preserve">
<title>Mountains</title>
<desc>Created with Sketch.</desc>
<g id="Symbols_2_">
	<g id="mountain_1_" transform="translate(-513.000000, 0.000000)">
		<g id="Sun">
			<ellipse fill="#E57C6B" cx="1231.864" cy="172.166" rx="188.915" ry="189"/>
		</g>
	</g>
</g>
<g id="Symbols">
	<g id="mountain" transform="translate(0.000000, -51.000000)">
		<g id="Mountains">
			<g transform="translate(0.000000, 50.750000)">
				<path id="Path-3" fill="#FFADA0" d="M459.663,145.337c15.26,4.072,123.354,63.87,207.174,59.543
					c64.279-3.317,133.438-32.468,207.475-87.449L708.32,310.809H494.968C469.052,233.193,457.283,178.037,459.663,145.337z"/>
				<path id="Path-3-Copy" fill="#FFADA0" d="M915.443,85.509c45.48,23.457,91.85,49.984,130.701,66.082l-0.24,68.384
					c-27.469,14.572-70.033,14.572-127.693,0C905.296,150.54,904.373,105.718,915.443,85.509z"/>
				<path id="Rectangle-10" fill="#205A59" d="M21.762,248.313c258.159-2.653,373.438-63.562,437.901-102.975
					c47.152,58.278,90.299,77.067,135.792,93.499c37.4,13.511-14.027,22.785-38.707,37.529
					C722.294,248.4,827.818,148.384,915.472,85.549c9.457,25.367,80.896,81.961,130.471,111.895
					c-0.053,22.177-0.078,81.56-0.078,178.146H21.891C21.775,314.469,21.731,272.043,21.762,248.313z"/>
				<g id="Group" transform="translate(677.000000, 0.250000)">
					<path id="Path-6" fill="#FFFFFF" d="M21.792,17.444c26.584,6.186,39.563,30.637,65.35,30.637
						c25.785,0,42.051-30.637,62.734-30.637c-20.801-5.859-51.271,8.759-62.734,15.369C74.992,26.471,50.681,17.444,21.792,17.444z"
						/>
					<path id="Path-6-Copy" fill="#FFFFFF" d="M158.244,54.467c17.234,4.01,25.65,19.864,42.371,19.864
						c16.717,0,27.264-19.864,40.674-19.864c-13.486-3.799-33.242,5.679-40.674,9.964C192.736,60.32,176.974,54.467,158.244,54.467z
						"/>
				</g>
			</g>
		</g>
	</g>
</g>
<g id="Symbols_1_">
	<g id="Seed" transform="translate(-44.000000, -68.000000)">
		<g>
			
				<g id="seed-2" transform="translate(157.692013, 274.646759) scale(-1, 1) rotate(22.000000) translate(-157.692013, -274.646759) translate(74.692013, 182.646759)">
				
					<g id="Group-10" transform="translate(82.587767, 83.390358) rotate(44.000000) translate(-82.587767, -83.390358) translate(33.587767, 15.390358)">
					<path id="Oval-4" fill="#F2E4D1" d="M-235.306,861.739c4.345,7.527,12.108,12.13,23.29,13.809
						c4.135-10.523,4.03-19.549-0.316-27.072c-4.344-7.529-12.109-12.13-23.289-13.811
						C-239.757,845.187-239.651,854.211-235.306,861.739z"/>
					<path id="Oval-4-Copy-15" fill="#DECDB5" d="M-235.104,861.739c4.346,7.526,12.109,12.13,23.291,13.81l-23.605-40.886
						C-239.553,845.187-239.449,854.211-235.104,861.739z"/>
					<path id="Oval-4-Copy-2" fill="#F2E4D1" d="M-205.601,832.493c-2.971,8.167-1.508,17.072,4.392,26.717
						c10.72-3.595,17.567-9.477,20.539-17.644c2.972-8.167,1.507-17.072-4.393-26.718
						C-195.782,818.444-202.627,824.325-205.601,832.493z"/>
					<path id="Oval-4-Copy-14" fill="#DECDB5" d="M-201.428,859.211c10.719-3.595,17.565-9.478,20.537-17.643
						c2.971-8.167,1.508-17.074-4.393-26.72L-201.428,859.211z"/>
					<path id="Oval-4-Copy" fill="#F2E4D1" d="M-239.339,898.315c6.147,6.147,14.836,8.583,26.072,7.311
						c1.271-11.234-1.166-19.926-7.312-26.07c-6.146-6.146-14.836-8.583-26.072-7.313
						C-247.922,883.479-245.484,892.169-239.339,898.315z"/>
					<path id="Oval-4-Copy-16" fill="#DECDB5" d="M-239.172,898.314c6.145,6.146,14.836,8.583,26.071,7.312l-33.384-33.382
						C-247.755,883.478-245.32,892.17-239.172,898.314z"/>
					<path id="Oval-4-Copy-5" fill="#F2E4D1" d="M-235.7,934.534c7.674,4.08,16.698,3.87,27.069-0.629
						c-2.068-11.117-6.94-18.714-14.615-22.796c-7.674-4.08-16.698-3.87-27.069,0.63
						C-248.245,922.855-243.373,930.453-235.7,934.534z"/>
					<path id="Oval-4-Copy-17" fill="#DECDB5" d="M-235.59,934.534c7.675,4.08,16.698,3.87,27.07-0.63l-41.686-22.164
						C-248.135,922.855-243.264,930.452-235.59,934.534z"/>
					<path id="Oval-4-Copy-4" fill="#F2E4D1" d="M-176.204,884.411c-6.146,6.147-14.834,8.583-26.071,7.311
						c-1.271-11.234,1.167-19.924,7.312-26.071c6.144-6.146,14.835-8.583,26.071-7.311
						C-167.62,869.575-170.058,878.267-176.204,884.411z"/>
					<path id="Oval-4-Copy-12" fill="#DECDB5" d="M-176.369,884.413c-6.146,6.145-14.836,8.583-26.071,7.311l33.382-33.383
						C-167.786,869.576-170.223,878.266-176.369,884.413z"/>
					<path id="Oval-4-Copy-3" fill="#F2E4D1" d="M-174.212,919.322c-5.587,6.657-14.032,9.843-25.335,9.557
						c-2.245-11.082-0.575-19.953,5.01-26.61c5.588-6.658,14.033-9.842,25.335-9.557
						C-166.956,903.794-168.626,912.663-174.212,919.322z"/>
					<path id="Oval-4-Copy-13" fill="#DECDB5" d="M-174.391,919.321c-5.588,6.658-14.031,9.843-25.335,9.557l30.347-36.166
						C-167.136,903.793-168.805,912.664-174.391,919.321z"/>
				</g>
				<path id="Path-5" fill="none" stroke="#F2E4D1" stroke-width="7" d="M-717.177,587.498
					c3.316-37.741,33.788-93.756,66.462-106.862"/>
			</g>
			
				<g id="seed-1" transform="translate(141.349520, 153.045538) scale(-1, 1) rotate(8.000000) translate(-141.349520, -153.045538) translate(17.849520, 16.545538)">
				
					<g id="Group-10_1_" transform="translate(123.604012, 124.527861) rotate(44.000000) translate(-123.604012, -124.527861) translate(49.604012, 23.527861)">
					<path id="Oval-4_1_" fill="#F2E4D1" d="M-412.439,800.898c6.583,11.399,18.22,18.441,34.913,21.125
						c6.021-15.798,5.741-29.396-0.84-40.797c-6.582-11.398-18.219-18.443-34.911-21.126
						C-419.3,775.898-419.02,789.499-412.439,800.898z"/>
					<path id="Oval-4-Copy-15_1_" fill="#DECDB5" d="M-412.312,800.896c6.581,11.4,18.218,18.442,34.911,21.126l-35.751-61.923
						C-419.173,775.898-418.895,789.497-412.312,800.896z"/>
					<path id="Oval-4-Copy-2_1_" fill="#F2E4D1" d="M-367.417,757.528c-4.501,12.368-2.417,25.81,6.257,40.322
						c15.973-5.542,26.21-14.497,30.712-26.867c4.502-12.37,2.416-25.81-6.257-40.322
						C-352.678,736.203-362.915,745.158-367.417,757.528z"/>
					<path id="Oval-4-Copy-14_1_" fill="#DECDB5" d="M-361.296,797.851c15.973-5.542,26.21-14.497,30.711-26.866
						c4.504-12.371,2.416-25.81-6.255-40.325L-361.296,797.851z"/>
					<path id="Oval-4-Copy_1_" fill="#F2E4D1" d="M-418.613,855.139c9.309,9.306,22.372,13.097,39.192,11.369
						c1.726-16.817-2.065-29.881-11.372-39.188c-9.308-9.307-22.371-13.099-39.188-11.371
						C-431.71,832.766-427.919,845.828-418.613,855.139z"/>
					<path id="Oval-4-Copy-16_1_" fill="#DECDB5" d="M-418.51,855.137c9.307,9.309,22.371,13.099,39.188,11.371l-50.559-50.56
						C-431.608,832.767-427.817,845.828-418.51,855.137z"/>
					<path id="Oval-4-Copy-5_1_" fill="#F2E4D1" d="M-413.199,908.846c11.622,6.18,25.223,5.985,40.799-0.583
						c-3.264-16.589-10.709-27.974-22.332-34.153c-11.622-6.18-25.223-5.985-40.8,0.583
						C-432.266,891.282-424.823,902.666-413.199,908.846z"/>
					<path id="Oval-4-Copy-17_1_" fill="#DECDB5" d="M-413.132,908.846c11.624,6.179,25.223,5.985,40.802-0.584l-63.133-33.569
						C-432.198,891.28-424.754,902.666-413.132,908.846z"/>
					<path id="Oval-4-Copy-4_1_" fill="#F2E4D1" d="M-323.584,834.519c-9.308,9.307-22.37,13.098-39.189,11.371
						c-1.729-16.817,2.062-29.881,11.371-39.19c9.307-9.307,22.371-13.097,39.19-11.37
						C-310.486,812.15-314.276,825.213-323.584,834.519z"/>
					<path id="Oval-4-Copy-12_1_" fill="#DECDB5" d="M-323.687,834.521c-9.307,9.308-22.37,13.098-39.188,11.37l50.558-50.558
						C-310.588,812.149-314.378,825.212-323.687,834.521z"/>
					<path id="Oval-4-Copy-3_1_" fill="#F2E4D1" d="M-320.595,886.29c-8.46,10.083-21.144,14.998-38.049,14.743
						c-3.185-16.604-0.548-29.948,7.914-40.032c8.461-10.085,21.145-15,38.049-14.743
						C-309.494,862.86-312.132,876.203-320.595,886.29z"/>
					<path id="Oval-4-Copy-13_1_" fill="#DECDB5" d="M-320.704,886.288c-8.461,10.083-21.144,14.997-38.049,14.743l45.961-54.774
						C-309.605,862.86-312.242,876.204-320.704,886.288z"/>
				</g>
				<path id="Path-5_1_" fill="none" stroke="#F2E4D1" stroke-width="9" d="M-778.857,484.166
					c5.023-55.97,51.174-139.033,100.661-158.47"/>
			</g>
		</g>
	</g>
</g>
</svg>
