<?xml version="1.0" encoding="utf-8"?>
<!-- Generator: Adobe Illustrator 16.0.1, SVG Export Plug-In . SVG Version: 6.00 Build 0)  -->
<!DOCTYPE svg PUBLIC "-//W3C//DTD SVG 1.1//EN" "http://www.w3.org/Graphics/SVG/1.1/DTD/svg11.dtd">
<svg version="1.1" id="Слой_1" xmlns="http://www.w3.org/2000/svg" xmlns:xlink="http://www.w3.org/1999/xlink" x="0px" y="0px"
	 width="1022.776px" height="359.25px" viewBox="23.167 16.087 1022.776 359.25"
	 enable-background="new 23.167 16.087 1022.776 359.25" xml:space="preserve">
<title>Mountains</title>
<desc>Created with Sketch.</desc>
<g id="Symbols">
	<g id="mountain" transform="translate(0.000000, -51.000000)">
		<g id="Mountains">
			<g transform="translate(0.000000, 50.750000)">
				<path id="Path-3" fill="#FFADA0" d="M459.663,145.337c15.26,4.072,123.354,63.87,207.174,59.543
					c64.279-3.318,133.438-32.468,207.475-87.449L708.32,310.809H494.968C469.052,233.193,457.283,178.037,459.663,145.337z"/>
				<path id="Path-3-Copy" fill="#FFADA0" d="M915.442,85.509c45.482,23.457,91.851,49.984,130.702,66.082l-0.241,68.384
					c-27.468,14.572-70.032,14.572-127.693,0C905.296,150.54,904.373,105.718,915.442,85.509z"/>
				<path id="Rectangle-10" fill="#205A59" d="M21.762,248.313c258.159-2.654,373.438-63.562,437.901-102.975
					c47.152,58.278,90.3,77.067,135.791,93.499c37.402,13.51-14.027,22.785-38.707,37.529
					C722.294,248.4,827.817,148.384,915.473,85.549c9.457,25.367,80.895,81.961,130.47,111.895
					c-0.053,22.176-0.078,81.559-0.078,178.145H21.891C21.775,314.469,21.731,272.043,21.762,248.313z"/>
				<g id="Group" transform="translate(677.000000, 0.250000)">
					<path id="Path-6" fill="#FFFFFF" d="M21.792,17.444c26.584,6.186,39.563,30.637,65.35,30.637
						c25.785,0,42.051-30.637,62.734-30.637c-20.801-5.859-51.271,8.759-62.734,15.369C74.991,26.471,50.681,17.444,21.792,17.444z"
						/>
					<path id="Path-6-Copy" fill="#FFFFFF" d="M158.244,54.467c17.235,4.01,25.651,19.864,42.37,19.864
						c16.718,0,27.264-19.864,40.674-19.864c-13.485-3.799-33.242,5.679-40.674,9.964C192.736,60.32,176.974,54.467,158.244,54.467z
						"/>
				</g>
			</g>
		</g>
	</g>
</g>
<g id="Symbols_1_">
	<g id="Seed" transform="translate(-44.000000, -68.000000)">
		<g>
			
				<g id="seed-2" transform="translate(157.692013, 274.646759) scale(-1, 1) rotate(22.000000) translate(-157.692013, -274.646759) translate(74.692013, 182.646759)">
				
					<g id="Group-10" transform="translate(82.587767, 83.390358) rotate(44.000000) translate(-82.587767, -83.390358) translate(33.587767, 15.390358)">
					<path id="Oval-4" fill="#F2E4D1" d="M-235.306,861.739c4.345,7.528,12.109,12.13,23.29,13.81
						c4.135-10.523,4.031-19.549-0.315-27.074c-4.345-7.528-12.109-12.13-23.289-13.811
						C-239.757,845.187-239.651,854.211-235.306,861.739z"/>
					<path id="Oval-4-Copy-15" fill="#DECDB5" d="M-235.104,861.739c4.346,7.526,12.109,12.13,23.291,13.81l-23.605-40.886
						C-239.553,845.187-239.449,854.212-235.104,861.739z"/>
					<path id="Oval-4-Copy-2" fill="#F2E4D1" d="M-205.601,832.493c-2.972,8.167-1.508,17.073,4.391,26.718
						c10.72-3.595,17.567-9.477,20.539-17.644c2.972-8.167,1.508-17.073-4.392-26.719
						C-195.782,818.444-202.628,824.325-205.601,832.493z"/>
					<path id="Oval-4-Copy-14" fill="#DECDB5" d="M-201.429,859.212c10.72-3.596,17.566-9.477,20.538-17.644
						s1.508-17.073-4.392-26.719L-201.429,859.212z"/>
					<path id="Oval-4-Copy" fill="#F2E4D1" d="M-239.339,898.315c6.147,6.147,14.836,8.583,26.072,7.311
						c1.27-11.234-1.166-19.926-7.313-26.07c-6.145-6.146-14.836-8.583-26.071-7.312
						C-247.922,883.479-245.484,892.17-239.339,898.315z"/>
					<path id="Oval-4-Copy-16" fill="#DECDB5" d="M-239.172,898.315c6.145,6.146,14.836,8.583,26.071,7.312l-33.384-33.382
						C-247.755,883.479-245.319,892.17-239.172,898.315z"/>
					<path id="Oval-4-Copy-5" fill="#F2E4D1" d="M-235.7,934.535c7.674,4.079,16.698,3.87,27.069-0.63
						c-2.068-11.117-6.94-18.714-14.614-22.796c-7.674-4.079-16.698-3.87-27.07,0.63
						C-248.245,922.856-243.373,930.453-235.7,934.535z"/>
					<path id="Oval-4-Copy-17" fill="#DECDB5" d="M-235.59,934.534c7.675,4.08,16.698,3.87,27.07-0.63l-41.685-22.164
						C-248.135,922.856-243.264,930.453-235.59,934.534z"/>
					<path id="Oval-4-Copy-4" fill="#F2E4D1" d="M-176.204,884.412c-6.146,6.147-14.835,8.583-26.071,7.311
						c-1.272-11.235,1.166-19.924,7.311-26.071c6.145-6.145,14.836-8.583,26.071-7.311
						C-167.62,869.576-170.059,878.267-176.204,884.412z"/>
					<path id="Oval-4-Copy-12" fill="#DECDB5" d="M-176.37,884.413c-6.145,6.145-14.836,8.583-26.071,7.311l33.383-33.383
						C-167.786,869.577-170.223,878.267-176.37,884.413z"/>
					<path id="Oval-4-Copy-3" fill="#F2E4D1" d="M-174.212,919.322c-5.587,6.657-14.032,9.843-25.335,9.557
						c-2.245-11.082-0.575-19.953,5.011-26.61c5.587-6.659,14.032-9.843,25.335-9.557
						C-166.956,903.795-168.626,912.663-174.212,919.322z"/>
					<path id="Oval-4-Copy-13" fill="#DECDB5" d="M-174.391,919.322c-5.588,6.658-14.032,9.843-25.335,9.557l30.347-36.167
						C-167.135,903.794-168.805,912.665-174.391,919.322z"/>
				</g>
				<path id="Path-5" fill="none" stroke="#F2E4D1" stroke-width="7" d="M-717.177,587.498
					c3.316-37.742,33.788-93.756,66.462-106.863"/>
			</g>
			
				<g id="seed-1" transform="translate(141.349520, 153.045538) scale(-1, 1) rotate(8.000000) translate(-141.349520, -153.045538) translate(17.849520, 16.545538)">
				
					<g id="Group-10_1_" transform="translate(123.604012, 124.527861) rotate(44.000000) translate(-123.604012, -124.527861) translate(49.604012, 23.527861)">
					<path id="Oval-4_1_" fill="#F2E4D1" d="M-412.438,800.898c6.583,11.399,18.22,18.441,34.912,21.126
						c6.021-15.798,5.742-29.397-0.84-40.797c-6.582-11.399-18.219-18.442-34.911-21.126
						C-419.299,775.898-419.019,789.498-412.438,800.898z"/>
					<path id="Oval-4-Copy-15_1_" fill="#DECDB5" d="M-412.312,800.897c6.581,11.4,18.218,18.442,34.911,21.126l-35.751-61.923
						C-419.173,775.898-418.894,789.497-412.312,800.897z"/>
					<path id="Oval-4-Copy-2_1_" fill="#F2E4D1" d="M-367.416,757.528c-4.502,12.369-2.417,25.811,6.257,40.323
						c15.973-5.542,26.21-14.497,30.712-26.867c4.502-12.37,2.416-25.81-6.257-40.323
						C-352.677,736.203-362.915,745.159-367.416,757.528z"/>
					<path id="Oval-4-Copy-14_1_" fill="#DECDB5" d="M-361.296,797.851c15.973-5.542,26.21-14.497,30.712-26.867
						c4.503-12.37,2.416-25.81-6.256-40.324L-361.296,797.851z"/>
					<path id="Oval-4-Copy_1_" fill="#F2E4D1" d="M-418.612,855.138c9.308,9.307,22.372,13.097,39.19,11.37
						c1.727-16.818-2.063-29.882-11.371-39.189c-9.308-9.307-22.371-13.098-39.188-11.371
						C-431.71,832.767-427.919,845.829-418.612,855.138z"/>
					<path id="Oval-4-Copy-16_1_" fill="#DECDB5" d="M-418.509,855.137c9.307,9.309,22.371,13.099,39.188,11.371l-50.559-50.56
						C-431.607,832.766-427.817,845.829-418.509,855.137z"/>
					<path id="Oval-4-Copy-5_1_" fill="#F2E4D1" d="M-413.199,908.846c11.622,6.18,25.223,5.985,40.801-0.584
						c-3.266-16.588-10.71-27.973-22.332-34.153c-11.623-6.179-25.223-5.985-40.801,0.584
						C-432.266,891.282-424.823,902.667-413.199,908.846z"/>
					<path id="Oval-4-Copy-17_1_" fill="#DECDB5" d="M-413.132,908.846c11.624,6.179,25.223,5.985,40.802-0.584l-63.133-33.569
						C-432.198,891.281-424.754,902.666-413.132,908.846z"/>
					<path id="Oval-4-Copy-4_1_" fill="#F2E4D1" d="M-323.584,834.52c-9.308,9.307-22.37,13.098-39.189,11.371
						c-1.728-16.818,2.063-29.882,11.371-39.19c9.307-9.307,22.371-13.097,39.19-11.371
						C-310.485,812.15-314.276,825.213-323.584,834.52z"/>
					<path id="Oval-4-Copy-12_1_" fill="#DECDB5" d="M-323.686,834.52c-9.308,9.309-22.371,13.098-39.189,11.371l50.559-50.559
						C-310.588,812.15-314.378,825.213-323.686,834.52z"/>
					<path id="Oval-4-Copy-3_1_" fill="#F2E4D1" d="M-320.594,886.289c-8.46,10.083-21.144,14.998-38.049,14.743
						c-3.185-16.604-0.548-29.948,7.913-40.031c8.461-10.085,21.145-15,38.05-14.744
						C-309.494,862.861-312.132,876.204-320.594,886.289z"/>
					<path id="Oval-4-Copy-13_1_" fill="#DECDB5" d="M-320.704,886.289c-8.461,10.083-21.144,14.997-38.049,14.743l45.961-54.775
						C-309.605,862.861-312.242,876.205-320.704,886.289z"/>
				</g>
				<path id="Path-5_1_" fill="none" stroke="#F2E4D1" stroke-width="9" d="M-778.857,484.166
					c5.023-55.971,51.174-139.033,100.661-158.47"/>
			</g>
		</g>
	</g>
</g>
</svg>
