<svg width="16" height="19" viewBox="0 0 16 19" fill="none" xmlns="http://www.w3.org/2000/svg">
<g opacity="0.8">
<g opacity="0.8">
<g opacity="0.8">
<g opacity="0.8">
<g opacity="0.8">
<path opacity="0.8" fill-rule="evenodd" clip-rule="evenodd" d="M7.94366 0.15625C4.01192 0.15625 0.824615 3.34356 0.824615 7.2753C0.824615 9.7303 2.02798 12.5294 3.89359 15.0874C4.62859 16.0953 5.44277 17.0056 6.13821 17.6681C6.48518 17.9987 6.81059 18.2753 7.08818 18.4729C7.22642 18.5714 7.36222 18.657 7.48967 18.72C7.60315 18.7762 7.76667 18.8438 7.94366 18.8438C8.12192 18.8438 8.28607 18.7746 8.39859 18.7182C8.52559 18.6545 8.66097 18.5682 8.7988 18.4689C9.0756 18.2697 9.40053 17.9909 9.74728 17.6577C10.4423 16.9899 11.2571 16.0727 11.9937 15.0583C13.857 12.4922 15.0627 9.69686 15.0627 7.2753C15.0627 3.34356 11.8754 0.15625 7.94366 0.15625ZM1.82462 7.2753C1.82462 3.89584 4.56421 1.15625 7.94366 1.15625C11.3231 1.15625 14.0627 3.89584 14.0627 7.2753C14.0627 9.39831 12.9876 11.9876 11.1846 14.4707C10.4824 15.4378 9.70644 16.3102 9.05445 16.9366C8.72768 17.2506 8.44001 17.4951 8.21459 17.6573C8.10131 17.7389 8.01318 17.7928 7.95044 17.8242L7.94237 17.8282L7.9331 17.8237C7.86999 17.7925 7.78159 17.7391 7.66817 17.6583C7.44242 17.4976 7.15465 17.2554 6.82801 16.9441C6.17624 16.3232 5.40155 15.458 4.70154 14.4982C2.89905 12.0267 1.82462 9.43352 1.82462 7.2753ZM4.60773 6.82812C4.60773 4.98574 6.10128 3.49219 7.94366 3.49219C9.78605 3.49219 11.2796 4.98574 11.2796 6.82812C11.2796 8.67051 9.78605 10.1641 7.94366 10.1641C6.10128 10.1641 4.60773 8.67051 4.60773 6.82812ZM7.94366 2.49219C5.54899 2.49219 3.60773 4.43345 3.60773 6.82812C3.60773 9.2228 5.54899 11.1641 7.94366 11.1641C10.3383 11.1641 12.2796 9.2228 12.2796 6.82812C12.2796 4.43345 10.3383 2.49219 7.94366 2.49219Z" fill="#E57C6B"/>
</g>
</g>
</g>
</g>
</g>
</svg>
