<svg height="512pt" viewBox="0 0 512 512" width="512pt" xmlns="http://www.w3.org/2000/svg"
     xmlns:xlink="http://www.w3.org/1999/xlink">
    <linearGradient id="a" gradientUnits="userSpaceOnUse" x1="0" x2="512" y1="256" y2="256">
        <stop offset="0" stop-color="#00f1ff"/>
        <stop offset=".231" stop-color="#00d8ff"/>
        <stop offset=".5138" stop-color="#00c0ff"/>
        <stop offset=".7773" stop-color="#00b2ff"/>
        <stop offset="1" stop-color="#00adff"/>
    </linearGradient>
    <path d="m512 256c0 141.386719-114.613281 256-256 256s-256-114.613281-256-256 114.613281-256 256-256 256 114.613281 256 256zm0 0"
          fill="url(#a)"/>
    <g fill="#fff">
        <path d="m256 90.195312c-90.5 0-164.128906 68.933594-164.128906 153.660157 0 43.648437 19.742187 84.847656 54.433594 114.132812v44.816407c0 5.238281 2.734374 10.101562 7.214843 12.820312 2.386719 1.449219 5.085938 2.179688 7.789063 2.179688 2.367187 0 4.742187-.5625 6.914062-1.691407l45.671875-23.734375c13.699219 3.40625 27.832031 5.132813 42.105469 5.132813 31.753906 0 62.585938-8.53125 89.160156-24.667969 7.082032-4.304688 9.335938-13.527344 5.035156-20.609375-4.300781-7.082031-13.523437-9.332031-20.605468-5.035156-21.882813 13.289062-47.328125 20.316406-73.589844 20.316406-13.527344 0-26.890625-1.867187-39.722656-5.546875-3.6875-1.058594-7.644532-.664062-11.050782 1.105469l-28.921874 15.03125v-27.289063c0-4.65625-2.160157-9.046875-5.851563-11.886718-30.875-23.757813-48.582031-58.414063-48.582031-95.074219 0-68.1875 60.167968-123.660157 134.125-123.660157 73.960937 0 134.128906 55.476563 134.128906 123.660157 0 22.984375-6.910156 45.425781-19.980469 64.894531-4.621093 6.878906-2.789062 16.195312 4.089844 20.8125 6.875 4.617188 16.195313 2.789062 20.816406-4.089844 16.402344-24.433594 25.074219-52.652344 25.074219-81.617187.003906-84.730469-73.625-153.660157-164.125-153.660157zm0 0"/>
        <path d="m325.273438 201.789062-50.71875 35.089844-26.726563-26.75c-2.8125-2.816406-6.632813-4.398437-10.609375-4.398437-.089844 0-.179688.003906-.269531.003906-4.074219.074219-7.941407 1.800781-10.71875 4.785156l-57.726563 62.121094c-5.492187 5.914063-5.324218 15.113281.382813 20.816406l.644531.648438c2.90625 2.90625 6.746094 4.394531 10.613281 4.394531 3.046875 0 6.113281-.925781 8.742188-2.8125l49.464843-35.511719 27.089844 26.789063c2.867188 2.832031 6.707032 4.378906 10.78125 4.332031 4.027344-.0625 7.863282-1.742187 10.640625-4.664063l58.464844-61.527343c5.605469-5.898438 5.484375-15.1875-.269531-20.941407l-.648438-.644531c-5.125-5.128906-13.179687-5.855469-19.136718-1.730469zm0 0"/>
    </g>
</svg>