<?xml version="1.0" encoding="utf-8"?>
<!-- Generator: Adobe Illustrator 16.0.1, SVG Export Plug-In . SVG Version: 6.00 Build 0)  -->
<!DOCTYPE svg PUBLIC "-//W3C//DTD SVG 1.1//EN" "http://www.w3.org/Graphics/SVG/1.1/DTD/svg11.dtd">
<svg version="1.1" id="Слой_1" xmlns="http://www.w3.org/2000/svg" xmlns:xlink="http://www.w3.org/1999/xlink" x="0px" y="0px"
	 width="1920px" height="360px" viewBox="0 0 1920 360" enable-background="new 0 0 1920 360" xml:space="preserve">
<title>Mountains</title>
<desc>Created with Sketch.</desc>
<g id="Symbols">
	<g id="mountain_1_" transform="translate(-513.000000, 0.000000)">
		<g id="Sun">
			<ellipse fill="#E57C6B" cx="1654.75" cy="189" rx="188.915" ry="189"/>
		</g>
	</g>
</g>
<g id="main">
	<g id="stylemap" transform="translate(0.000000, -5550.000000)">
		<g id="mountain" transform="translate(-1.000000, 5499.000000)">
			<g id="Mountains" transform="translate(0.000000, 50.750000)">
				<path id="Path-4" fill="#205A59" d="M1415,233.25c97.914,0,197-62,238.16-102.809c40.891,39.073,180,100.98,242.152,102.809
					c0,13.768,0,28.811,0,45.129c-310.37-4.697-465.555-7.047-465.555-7.047S1317.086,233.25,1415,233.25z"/>
				<path id="Path-3" fill="#FFADA0" d="M886.553,130c19.447,16.25,123.354,63.87,207.174,59.543
					c64.279-3.318,121.198-21.488,170.756-54.51L1135.21,295.471H921.857C895.941,217.855,884.173,162.699,886.553,130z"/>
				<path id="Rectangle-10" fill="#205A59" d="M1,233.24c349,0,696,11.01,885.553-103.24c0,54.25,169.191,89.25,97.084,131.027
					c165.547-27.964,293.319-125.994,347.969-190.816C1498.507,219.25,1652.234,233.24,1921,233.24
					c-0.052,22.178,0.281,64.514,1,127.01H1C0.97,299.309,0.97,256.973,1,233.24z"/>
				<path id="Path-3-Copy" fill="#FFADA0" d="M1331.665,70.245c29.962,25.116,133.679,95.005,226.776,95.005
					c37.823,0,67.314-16,94.706-34.809c0,22.042-75.147,52.809-46.849,88.809C1498.664,207.25,1391,138.891,1331.665,70.245z"/>
				<g id="Group" transform="translate(1125.000000, 0.250000)">
					<path id="Path-6" fill="#FFFFFF" d="M0.682,2.106c26.584,6.186,39.563,30.637,65.35,30.637
						c25.785,0,42.051-30.637,62.734-30.637c-20.801-5.859-51.271,8.759-62.734,15.369C53.881,11.134,29.57,2.106,0.682,2.106z"/>
					<path id="Path-6-Copy" fill="#FFFFFF" d="M137.134,39.129c17.235,4.01,25.651,19.864,42.37,19.864s27.264-19.864,40.674-19.864
						c-13.485-3.799-33.242,5.679-40.674,9.964C171.626,44.982,155.863,39.129,137.134,39.129z"/>
				</g>
			</g>
		</g>
	</g>
</g>
</svg>
