<?xml version="1.0" encoding="utf-8"?>
<!-- Generator: Adobe Illustrator 16.0.1, SVG Export Plug-In . SVG Version: 6.00 Build 0)  -->
<!DOCTYPE svg PUBLIC "-//W3C//DTD SVG 1.1//EN" "http://www.w3.org/Graphics/SVG/1.1/DTD/svg11.dtd">
<svg version="1.1" id="Слой_1" xmlns="http://www.w3.org/2000/svg" xmlns:xlink="http://www.w3.org/1999/xlink" x="0px" y="0px"
	 width="1022.525px" height="201px" viewBox="0.642 65.5 1022.525 201" enable-background="new 0.642 65.5 1022.525 201"
	 xml:space="preserve">
<title>Mountains</title>
<desc>Created with Sketch.</desc>
<g id="Symbols">
	<g id="mountain" transform="translate(0.000000, -51.000000)">
		<g id="Mountains">
			<g transform="translate(0.000000, 50.750000)">
				<path id="Path-3" fill="#FFADA0" d="M438.553,130c15.26,4.072,123.354,63.87,207.174,59.543
					c64.279-3.318,133.438-32.468,207.475-87.448L687.21,295.471H473.857C447.941,217.855,436.173,162.699,438.553,130z"/>
				<path id="Path-3-Copy" fill="#FFADA0" d="M894.332,70.172c45.482,23.457,91.851,49.984,130.702,66.082l-0.241,68.383
					c-27.468,14.572-70.032,14.572-127.693,0C884.186,135.203,883.263,90.381,894.332,70.172z"/>
				<path id="Rectangle-10" fill="#205A59" d="M0.651,232.975C258.81,230.32,374.09,169.414,438.553,130
					c47.152,58.277,90.3,77.066,135.791,93.498c37.402,13.51-14.027,22.786-38.707,37.529
					c165.547-27.964,271.07-127.98,358.726-190.816c9.457,25.367,80.895,81.961,130.47,111.894
					c-0.053,22.177-0.078,81.559-0.078,178.145H0.781C0.665,299.131,0.621,256.705,0.651,232.975z"/>
				<g id="Group" transform="translate(677.000000, 0.250000)">
					<path id="Path-6" fill="#FFFFFF" d="M0.682,2.106c26.584,6.186,39.563,30.637,65.35,30.637
						c25.785,0,42.051-30.637,62.734-30.637c-20.801-5.859-51.271,8.759-62.734,15.369C53.881,11.134,29.57,2.106,0.682,2.106z"/>
					<path id="Path-6-Copy" fill="#FFFFFF" d="M137.134,39.129c17.235,4.01,25.651,19.864,42.37,19.864
						c16.718,0,27.264-19.864,40.674-19.864c-13.485-3.799-33.242,5.679-40.674,9.964C171.626,44.982,155.863,39.129,137.134,39.129
						z"/>
				</g>
			</g>
		</g>
	</g>
</g>
</svg>
