<?xml version="1.0" encoding="UTF-8"?>
<svg width="1026px" height="360px" viewBox="0 0 1026 360" version="1.1" xmlns="http://www.w3.org/2000/svg" xmlns:xlink="http://www.w3.org/1999/xlink">
    <!-- Generator: Sketch 51.2 (57519) - http://www.bohemiancoding.com/sketch -->
    <title>Mountains</title>
    <desc>Created with Sketch.</desc>
    <defs></defs>
    <g id="Symbols" stroke="none" stroke-width="1" fill="none" fill-rule="evenodd">
        <g id="mountain" transform="translate(0.000000, -51.000000)">
            <g id="Mountains">
                <g transform="translate(0.000000, 50.750000)">
                    <path d="M438.552632,130 C453.812366,134.072266 561.906954,193.870092 645.726697,189.542969 C710.005894,186.224609 779.16399,157.075195 853.200982,102.094727 L687.210151,295.470349 L473.857531,295.470349 C447.941143,217.856002 436.172843,162.699219 438.552632,130 Z" id="Path-3" fill="#FFADA0"></path>
                    <path d="M894.331765,70.1717119 C939.814376,93.6285009 986.183055,120.156356 1025.03438,136.253456 C1025.03438,136.253456 1024.79297,204.637214 1024.79297,204.637214 C997.325161,219.209254 954.760742,219.209254 897.099711,204.637214 C884.185257,135.202639 883.262608,90.380805 894.331765,70.1717119 Z" id="Path-3-Copy" fill="#FFADA0"></path>
                    <path d="M0.651413182,232.974007 C258.8099,230.320707 374.089883,169.413681 438.552632,130 C485.705239,188.277344 528.852159,207.065822 574.344058,223.498047 C611.746255,237.008173 560.316108,246.284067 535.636869,261.027344 C701.183459,233.063724 806.707258,133.046875 894.362675,70.2114181 C903.8197,95.5788211 975.257261,152.172663 1024.83156,182.105072 C1024.77962,204.28242 1024.75366,263.664063 1024.75366,360.25 L0.780962343,360.25 C0.664435786,299.130859 0.621252732,256.705528 0.651413182,232.974007 Z" id="Rectangle-10" fill="#205A59"></path>
                    <g id="Group" transform="translate(677.000000, 0.250000)" fill="#FFFFFF">
                        <path d="M0.681511471,2.10655096 C27.2652507,8.29181815 40.245249,32.74299 66.0310075,32.74299 C91.816766,32.74299 108.082395,2.10655096 128.765469,2.10655096 C107.96526,-3.75282404 77.4941103,10.8655486 66.0310075,17.4749236 C53.881202,11.133615 29.5698776,2.10655096 0.681511471,2.10655096 Z" id="Path-6"></path>
                        <path d="M137.133603,39.129534 C154.369449,43.1398168 162.785167,58.99299 179.503633,58.99299 C196.2221,58.99299 206.76809,39.129534 220.178178,39.129534 C206.692145,35.3305469 186.935856,44.8085218 179.503633,49.0937793 C171.62618,44.9823255 155.863678,39.129534 137.133603,39.129534 Z" id="Path-6-Copy"></path>
                    </g>
                </g>
            </g>
        </g>
    </g>
</svg>