<svg width="15" height="20" viewBox="0 0 15 20" fill="none" xmlns="http://www.w3.org/2000/svg">
<g opacity="0.8">
<g opacity="0.8">
<g opacity="0.8">
<g opacity="0.8">
<g opacity="0.8">
<path opacity="0.8" fill-rule="evenodd" clip-rule="evenodd" d="M1.94366 2.5C1.94366 1.67157 2.61524 1 3.44366 1H12.4437C13.2721 1 13.9437 1.67157 13.9437 2.5V4H1.94366V2.5ZM0.943665 5V4V2.5C0.943665 1.11929 2.06295 0 3.44366 0H12.4437C13.8244 0 14.9437 1.11929 14.9437 2.5V4V5V17.5C14.9437 18.8807 13.8244 20 12.4437 20H3.44366C2.06295 20 0.943665 18.8807 0.943665 17.5V5ZM13.9437 5V17.5C13.9437 18.3284 13.2721 19 12.4437 19H3.44366C2.61524 19 1.94366 18.3284 1.94366 17.5V5H13.9437Z" fill="#E57C6B"/>
<path opacity="0.8" d="M7.94366 18C8.49595 18 8.94366 17.5523 8.94366 17C8.94366 16.4477 8.49595 16 7.94366 16C7.39138 16 6.94366 16.4477 6.94366 17C6.94366 17.5523 7.39138 18 7.94366 18Z" fill="#E57C6B"/>
</g>
</g>
</g>
</g>
</g>
</svg>
