<svg width="21" height="18" viewBox="0 0 21 18" fill="none" xmlns="http://www.w3.org/2000/svg">

<path opacity="0.8" fill-rule="evenodd" clip-rule="evenodd" d="M17.8003 9.08951C18.1901 9.48018 18.1897 10.1127 17.7995 10.5029L10.7877 17.5146C10.3993 17.9031 9.77026 17.9054 9.3789 17.52L0.586646 8.86033C0.395815 8.67238 0.288361 8.41572 0.288361 8.14787V1.0132C0.288361 0.460918 0.736075 0.0132027 1.28836 0.0132027H8.33121C8.59685 0.0132027 8.85157 0.118894 9.03918 0.306958L17.8003 9.08951ZM10.0806 16.8075L17.0924 9.79576L8.33121 1.0132L1.28836 1.0132L1.28836 8.14787L10.0806 16.8075ZM12.9237 17.4077C12.7283 17.2126 12.7281 16.896 12.9232 16.7006L18.74 10.8763C19.3227 10.2928 19.3252 9.34847 18.7456 8.76196L11.1385 1.06413C10.9444 0.867718 10.9463 0.551141 11.1427 0.35704C11.3391 0.162939 11.6557 0.164815 11.8498 0.361232L19.4569 8.05905C20.4229 9.03657 20.4187 10.6105 19.4476 11.5829L13.6308 17.4073C13.4356 17.6027 13.119 17.6029 12.9237 17.4077ZM3.77435 4.5C3.77435 3.94772 4.22207 3.5 4.77435 3.5C5.32663 3.5 5.77435 3.94772 5.77435 4.5C5.77435 5.05229 5.32663 5.5 4.77435 5.5C4.22207 5.5 3.77435 5.05229 3.77435 4.5ZM4.77435 2.5C3.66978 2.5 2.77435 3.39543 2.77435 4.5C2.77435 5.60457 3.66978 6.5 4.77435 6.5C5.87892 6.5 6.77435 5.60457 6.77435 4.5C6.77435 3.39543 5.87892 2.5 4.77435 2.5Z" fill="#E57C6B"/>

</svg>
