<svg width="170" height="170" viewBox="0 0 170 170" fill="none" xmlns="http://www.w3.org/2000/svg">
<circle r="85" transform="matrix(-1 0 0 1 85 85)" fill="#F3E4D0"/>
<mask id="mask0" mask-type="alpha" maskUnits="userSpaceOnUse" x="0" y="0" width="170" height="170">
<circle r="85" transform="matrix(-1 0 0 1 85 85)" fill="#F3E4D0"/>
</mask>
<g mask="url(#mask0)">
<path d="M20.7203 88.5608L18.5 147L-11.7418 140.5L-14 29H-0.168355L13.0987 42.8316L20.7203 88.5608Z" fill="#DECDB4"/>
<path d="M41.272 78.9171C37.562 79.8275 32.5878 81.1271 30.3177 82.0683L31.1646 96.7468L43.3039 89.0668C44.3247 88.421 45.6369 88.4661 46.6111 89.1804C48.3347 90.4444 50.3232 91.3 52.4261 91.6823L58.5456 92.7949C60.8979 85.9262 64.1911 72.2451 58.5456 72.4709C55.0959 72.6089 51.9836 73.8935 49.703 75.1708C47.0148 76.6764 44.2643 78.1829 41.272 78.9171Z" fill="#FFFFFD"/>
<path d="M53.65 59L79.225 99.1013L74.575 120.446L49 80.3443L53.65 59Z" fill="#DECDB4"/>
<path d="M116.425 59L142 99.1013H79.225L53.65 59H116.425Z" fill="#F8EFE4"/>
<path d="M79.225 99.1013H142L137.35 120.446H74.575L79.225 99.1013Z" fill="#DECDB4"/>
<path d="M32.1094 90.2418L23.8253 64.8494L9.14685 91.9481L17.1101 109.691C21.9784 120.538 33.1659 127.127 45.013 126.126L51.3269 125.593C60.6363 124.806 69.9982 124.871 79.2958 125.788C83.1764 126.171 87.048 124.979 90.0413 122.479L95.9586 117.539C97.5632 116.2 97.608 113.749 96.0533 112.351C94.98 111.387 93.6095 110.817 92.1686 110.737L81.1703 110.126C80.3076 110.078 79.8464 109.088 80.3648 108.397L80.503 108.212C81.2903 107.163 81.8942 105.987 82.2894 104.736C82.6849 103.484 81.3485 102.39 80.1992 103.026L70.119 108.603L64.6083 111.53C62.3654 112.722 59.7233 112.91 57.334 112.049L51.0684 109.79C42.0717 106.547 35.0755 99.3335 32.1094 90.2418Z" fill="#FFFFFD"/>
<path d="M166.33 96.8302L170.046 92.795L178.796 106.062C177.532 111.2 173.32 115.086 168.097 115.933L146.188 119.486L134.798 122.926C131.477 123.929 127.877 122.892 125.598 120.277L122.775 117.037C121.776 115.89 121.835 114.165 122.91 113.09C123.613 112.387 124.547 111.965 125.538 111.901L131.513 111.519C132.118 111.48 132.359 110.718 131.888 110.338L131.52 110.041C130.976 109.602 130.52 109.064 130.177 108.454C129.897 107.957 130.309 107.353 130.875 107.434L139.693 108.686L143.474 109.613C145.923 110.213 148.51 109.76 150.608 108.362L160.713 101.63C162.77 100.26 164.656 98.6485 166.33 96.8302Z" fill="#FFFFFD"/>
<path d="M150.5 121C150.5 117.453 150.011 112.389 149.5 107.5C158.5 104.5 171.5 92.5 172.5 78L183 76V106.5C175.505 111.365 159.247 120.533 150.5 121Z" fill="#DECDB4"/>
<path d="M34.2673 83.3468C35.4668 87.5124 36.5628 91.6387 37.2013 94.793C37.4613 96.0774 36.3419 97.1658 35.0493 96.9504C32.2754 96.4881 29.4561 96.3607 26.6518 96.5711L8.29114 97.9481L4.62152 86.9392L-3 71.6962L4.62152 35C7.35021 36.7878 14.2754 41.8876 20.1468 47.9848C20.2571 48.0993 20.3659 48.2142 20.4734 48.3295C29.0869 57.5745 30.7711 71.2043 34.2673 83.3468Z" fill="#DECDB4"/>
</g>
</svg>
