<svg width="170" height="170" viewBox="0 0 170 170" fill="none" xmlns="http://www.w3.org/2000/svg">
<circle cx="85" cy="85" r="85" fill="#F3E4D0"/>
<mask id="mask0" mask-type="alpha" maskUnits="userSpaceOnUse" x="0" y="0" width="170" height="170">
<circle cx="85" cy="85" r="85" fill="#F3E4D0"/>
</mask>
<g mask="url(#mask0)">
<path d="M28.8258 121.175L32.1707 119.72L89.0244 114L172 117.12L128.7 126.4C126.84 126.799 124.943 127 123.041 127H94.1463L29.1647 123.091C28.1151 123.027 27.8616 121.595 28.8258 121.175Z" fill="#DECDB5"/>
<path d="M92.3106 59.5115L143.647 52.4306V117.043L92.3106 124.124V59.5115Z" fill="#F8EFE4"/>
<path d="M84.3447 123.681L92.3106 124.124L94.9659 120.141H89.6553L84.3447 123.681Z" fill="#F8EFE4"/>
<path d="M81.5163 49.1957C82.4746 49.0655 83.4432 49.0284 84.4086 49.0847L143.647 52.5404L94.9069 59.1589C93.4197 59.3608 92.3106 60.6308 92.3106 62.1316V120.964C92.3106 122.682 90.8708 124.049 89.1552 123.96L33.1979 121.057C31.6036 120.974 30.3533 119.658 30.3533 118.061V58.7645C30.3533 57.2637 31.4624 55.9938 32.9496 55.7918L81.5163 49.1957Z" fill="#FFFFFD"/>
<path fill-rule="evenodd" clip-rule="evenodd" d="M67.8384 77.2406C68.2598 77.2406 68.4922 76.7514 68.226 76.4248L60.6966 67.1842C60.4965 66.9386 60.1215 66.9386 59.9214 67.1842L52.392 76.4248C52.1258 76.7514 52.3583 77.2406 52.7796 77.2406H67.8384ZM63.0272 85.1398C63.3033 85.1398 63.5272 84.9159 63.5272 84.6398V77.7406C63.5272 77.4645 63.3033 77.2406 63.0272 77.2406H57.5908C57.3147 77.2406 57.0908 77.4645 57.0908 77.7406V84.6398C57.0908 84.9159 57.3147 85.1398 57.5908 85.1398H63.0272Z" fill="#DECDB5"/>
<path fill-rule="evenodd" clip-rule="evenodd" d="M67.8384 103.571C68.2598 103.571 68.4922 104.06 68.226 104.387L60.6966 113.628C60.4965 113.873 60.1215 113.873 59.9214 113.628L52.392 104.387C52.1258 104.06 52.3583 103.571 52.7796 103.571H67.8384ZM63.0272 95.6719C63.3033 95.6719 63.5272 95.8958 63.5272 96.1719V103.071C63.5272 103.347 63.3033 103.571 63.0272 103.571H57.5908C57.3147 103.571 57.0908 103.347 57.0908 103.071V96.1719C57.0908 95.8958 57.3147 95.6719 57.5908 95.6719H63.0272Z" fill="#DECDB5"/>
<path d="M41.2573 90.09C41.1075 90.2739 41.1075 90.5378 41.2573 90.7217L48.6942 99.8487C48.9913 100.213 49.5818 100.003 49.5818 99.5328L49.5818 81.2789C49.5818 80.8085 48.9913 80.5983 48.6942 80.963L41.2573 90.09Z" fill="#DECDB5"/>
<path d="M79.3606 90.09C79.5105 90.2739 79.5105 90.5378 79.3606 90.7217L71.9238 99.8487C71.6267 100.213 71.0362 100.003 71.0362 99.5328L71.0362 81.2789C71.0362 80.8085 71.6267 80.5983 71.9238 80.963L79.3606 90.09Z" fill="#DECDB5"/>
</g>
</svg>
