<svg width="170" height="170" viewBox="0 0 170 170" fill="none" xmlns="http://www.w3.org/2000/svg">
<circle cx="85" cy="85" r="85" fill="#F3E4D0"/>
<mask id="mask0" mask-type="alpha" maskUnits="userSpaceOnUse" x="0" y="0" width="170" height="170">
<circle cx="85" cy="85" r="85" fill="#F3E4D0"/>
</mask>
<g mask="url(#mask0)">
<path d="M167.181 98.5974L171.958 94.5488L179.601 109.996C177.553 115.356 172.501 118.974 166.767 119.188L142.716 120.081L129.998 122.26C126.291 122.895 122.556 121.298 120.453 118.179L117.848 114.315C116.926 112.947 117.22 111.099 118.522 110.086C119.371 109.424 120.433 109.094 121.508 109.158L127.989 109.545C128.645 109.585 129.007 108.797 128.55 108.325L128.194 107.956C127.667 107.411 127.249 106.771 126.962 106.069C126.726 105.496 127.251 104.902 127.849 105.064L137.171 107.591L141.428 109.213C143.783 110.111 146.407 109.979 148.661 108.851L161.014 102.668C163.225 101.562 165.295 100.195 167.181 98.5974Z" fill="#FFFFFD"/>
<path d="M147.154 122.287C147.628 118.47 147.779 112.955 147.883 107.626C157.969 105.601 184 85.6043 192.5 76.1043L197.5 98.6043L184 115.104C175.284 119.338 156.629 122.954 147.154 122.287Z" fill="#DECDB4"/>
<path d="M96.1909 26.9685L118.741 68.8454L56.137 64.2196L33.5866 22.3427L96.1909 26.9685Z" fill="#F8EFE4"/>
<path d="M56.137 64.2196L33.5866 22.3427L22.955 103.123L45.5055 145L108.11 149.626L118.741 68.8454L56.137 64.2196Z" fill="#DECDB4"/>
<path fill-rule="evenodd" clip-rule="evenodd" d="M92.6835 89.3594C93.1037 89.3906 93.3717 88.92 93.1305 88.5745L83.8224 75.2432C83.6411 74.9835 83.267 74.9557 83.0493 75.1857L71.8728 86.9947C71.5832 87.3007 71.7787 87.8058 72.1989 87.837L77.7081 88.2464C77.9835 88.2669 78.1902 88.5067 78.1697 88.7821L77.4714 98.1785C77.4509 98.4538 77.6576 98.6937 77.933 98.7141L85.4046 99.2694C85.68 99.2899 85.9198 99.0832 85.9403 98.8078L86.6386 89.4115C86.659 89.1361 86.8989 88.9295 87.1742 88.9499L92.6835 89.3594Z" fill="#F8EFE4"/>
<path fill-rule="evenodd" clip-rule="evenodd" d="M90.1088 124.005C90.529 124.036 90.7245 124.541 90.4349 124.847L79.2584 136.656C79.0407 136.886 78.6666 136.858 78.4853 136.598L69.1772 123.267C68.936 122.922 69.204 122.451 69.6242 122.482L75.1334 122.892C75.4088 122.912 75.6486 122.706 75.6691 122.43L76.3674 113.034C76.3879 112.758 76.6277 112.552 76.9031 112.572L84.3747 113.128C84.6501 113.148 84.8567 113.388 84.8363 113.663L84.138 123.06C84.1175 123.335 84.3242 123.575 84.5995 123.595L90.1088 124.005Z" fill="#F8EFE4"/>
<path d="M56.0273 103.737C55.8643 103.909 55.8447 104.172 55.9805 104.367L65.2047 117.578C65.474 117.964 66.0785 117.798 66.1133 117.329L67.9648 92.415C67.9997 91.9459 67.4264 91.6927 67.103 92.0343L56.0273 103.737Z" fill="#F8EFE4"/>
<path d="M106.327 107.475C106.463 107.669 106.443 107.933 106.28 108.105L95.2046 119.807C94.8813 120.149 94.308 119.896 94.3428 119.427L96.1943 94.513C96.2292 94.0439 96.8336 93.8781 97.1029 94.2638L106.327 107.475Z" fill="#F8EFE4"/>
<path d="M24 98.6463L20.9305 166L-20.878 158.508L-24 30H-4.87805L13.4634 45.9416L24 98.6463Z" fill="#F8EFE4"/>
<path d="M44.8036 97.5255L28.9568 76.1459L12.0265 93.3188L30.4595 111.074C32.7347 113.266 35.3644 115.056 38.2371 116.37L68.9565 130.422L81.7899 135.415C85.5867 136.892 89.8176 136.782 93.5326 135.11L100.313 132.058C102.219 131.2 102.923 128.852 101.802 127.088C101.028 125.87 99.8616 124.952 98.4955 124.487L88.0684 120.936C87.2505 120.657 87.073 119.579 87.7585 119.053L87.9413 118.913C88.9822 118.114 89.8804 117.145 90.598 116.047C91.3162 114.947 90.3238 113.534 89.0457 113.837L77.836 116.491L72.2883 117.706C69.494 118.318 66.5752 117.565 64.4255 115.678L49.257 102.363C47.6053 100.913 46.1124 99.2912 44.8036 97.5255Z" fill="#FFFFFD"/>
<path d="M40.2857 85.6311C40.6014 86.4097 40.8847 87.1779 41.1263 87.9261C41.5691 89.2973 40.851 90.7277 39.5556 91.3587L34.9197 93.6168L15.5026 104.827L8.10032 90.0898L-0.529937 77.3943L4.60423 40.2684C7.44707 41.8684 14.6999 46.4905 20.9684 52.1787C30.4645 60.7958 35.468 73.7474 40.2857 85.6311Z" fill="#F8EFE4"/>
</g>
</svg>
