<svg width="50" height="50" viewBox="0 0 50 50" fill="none" xmlns="http://www.w3.org/2000/svg">
<circle cx="25" cy="25" r="25" fill="#F3E4D0"/>
<mask id="mask0" mask-type="alpha" maskUnits="userSpaceOnUse" x="0" y="0" width="50" height="50">
<circle cx="25" cy="25" r="25" fill="#F3E4D0"/>
</mask>
<g mask="url(#mask0)">
<path d="M46.6505 4.4316L47.3595 3.66164L51.8911 10.5321C51.2363 13.1929 49.0552 15.2052 46.3502 15.6439L35.0049 17.4836L29.1062 19.2651C27.3866 19.7844 25.5223 19.2476 24.3422 17.8933L22.8801 16.2154C22.3626 15.6215 22.3932 14.7284 22.9502 14.1714C23.3139 13.8077 23.7977 13.5889 24.3109 13.5561L27.4051 13.3579C27.7183 13.3378 27.8435 12.9434 27.5993 12.7463L27.4088 12.5926C27.1271 12.3653 26.8911 12.0865 26.7135 11.771C26.5683 11.5131 26.7818 11.2008 27.0748 11.2424L31.6415 11.8907L31.7472 11.9166C34.1953 12.5171 36.7831 12.0633 38.8809 10.6658L41.0334 9.23176C43.0904 7.86136 44.9762 6.24986 46.6505 4.4316Z" fill="#FFFFFD"/>
<path d="M33.0734 18.9211C33.3075 18.687 33.2643 18.2962 32.9847 18.1189L30.9257 16.8135C29.2765 15.7679 27.7477 14.5437 26.367 13.1629C24.9863 11.7822 23.4575 10.5579 21.8083 9.51233L19.5677 8.09178C19.3552 7.95702 19.0776 7.98773 18.8996 8.16568L13.4565 13.6088C13.2224 13.8429 13.2656 14.2337 13.5452 14.411L15.6042 15.7164C17.2534 16.762 18.7822 17.9863 20.1629 19.367C21.5436 20.7477 23.0725 21.972 24.7216 23.0176L26.9622 24.4381C27.1747 24.5729 27.4523 24.5422 27.6303 24.3642L33.0734 18.9211Z" fill="#F8EFE4"/>
<path fill-rule="evenodd" clip-rule="evenodd" d="M30.2305 17.3647C29.6231 17.9722 29.6231 18.957 30.2305 19.5644C30.3591 19.6929 30.5046 19.7943 30.6598 19.8684L27.9684 22.5598C27.8942 22.4046 27.7929 22.2592 27.6643 22.1306C27.0569 21.5232 26.0721 21.5232 25.4647 22.1306C25.3814 22.214 25.3094 22.3044 25.249 22.4001L24.7275 22.058C23.2864 21.1125 21.9458 20.0218 20.727 18.803C19.5082 17.5842 18.1677 16.4935 16.7265 15.548L15.7673 14.9187C16.1641 14.3152 16.0971 13.4962 15.5664 12.9655L18.1326 10.3992C18.74 11.0066 19.7248 11.0066 20.3322 10.3992C20.5172 10.2142 20.6459 9.99419 20.7182 9.76048L21.8026 10.4719C23.2438 11.4174 24.5843 12.5081 25.8031 13.7269C27.0219 14.9457 28.3624 16.0364 29.8036 16.9819L30.2947 17.3041C30.2729 17.3236 30.2515 17.3438 30.2305 17.3647Z" fill="#FFFFFD"/>
<ellipse rx="2.07383" ry="2.59229" transform="matrix(-0.707107 -0.707107 -0.707107 0.707107 23.265 16.2649)" fill="#F3E4D0"/>
<path d="M25.4276 28.3116L36.7173 26.7545V40.0923C36.7173 40.5918 36.3487 41.0147 35.8539 41.0829L25.4276 42.521V28.3116Z" fill="#DECDB4"/>
<path d="M19.8613 42.1076L25.4275 42.521L26.0115 41.6451L25.7186 39.545L19.8613 42.1076Z" fill="#DECDB4"/>
<path d="M21.9298 26.1957C22.8881 26.0655 23.8567 26.0284 24.8221 26.0847L36.7172 26.7786L26.293 28.1941C25.7973 28.2614 25.4276 28.6847 25.4276 29.185V41.4678C25.4276 42.0405 24.9476 42.4961 24.3758 42.4665L12.7503 41.8633C12.2189 41.8357 11.8021 41.3968 11.8021 40.8646V28.4445C11.8021 27.9443 12.1718 27.521 12.6675 27.4536L21.9298 26.1957Z" fill="#FFFFFD"/>
<path d="M4.14992 32.7536L-4.47895 26L-9.6413 33.4599L-1.88892 38.2287C1.92641 40.5756 6.24913 41.9729 10.7163 42.3033L18.0149 42.843L22.7656 43.3206C24.2337 43.4682 25.6985 43.011 26.822 42.0546L28.8022 40.369C29.3639 39.8909 29.3797 39.0287 28.8359 38.5303C28.4507 38.1773 27.9553 37.9683 27.4337 37.9388L23.5977 37.7215C23.2887 37.704 23.1223 37.3506 23.3057 37.1012L23.3566 37.0321C23.6322 36.6574 23.8431 36.2393 23.9807 35.7951C24.1202 35.3447 23.6375 34.9553 23.2268 35.1869L19.7025 37.1747C17.6829 38.2686 15.2904 38.4415 13.1346 37.6491L12.5627 37.4389C9.53149 36.3249 6.69301 34.7441 4.14992 32.7536Z" fill="#F8EFE4"/>
</g>
</svg>
