<svg width="50" height="50" viewBox="0 0 50 50" fill="none" xmlns="http://www.w3.org/2000/svg">
<circle cx="25" cy="25" r="25" fill="#F3E4D0"/>
<path fill-rule="evenodd" clip-rule="evenodd" d="M34.0886 10H15.8277H15.8277C13.3064 10 11.2625 16.7157 11.2625 25C11.2625 33.2843 13.3064 40 15.8277 40H34.0886C31.5673 40 29.5234 33.2843 29.5234 25C29.5234 16.7157 31.5673 10 34.0886 10Z" fill="#FFFFFD"/>
<path fill-rule="evenodd" clip-rule="evenodd" d="M29.6803 21.087H38.4969C37.9731 14.7002 36.1979 10 34.0886 10C31.9793 10 30.2041 14.7002 29.6803 21.087Z" fill="#DECDB4"/>
<path fill-rule="evenodd" clip-rule="evenodd" d="M15.6962 16.5628C15.7406 15.9517 15.9726 15.4726 16.3923 15.1254C16.8119 14.7782 17.3517 14.6285 18.0115 14.6765C18.6803 14.725 19.195 14.9513 19.5556 15.3551C19.9166 15.7545 20.0739 16.2733 20.0275 16.9115L19.992 17.4004C19.9476 18.0115 19.718 18.4885 19.3032 18.8315C18.8883 19.1745 18.3509 19.322 17.6911 19.2741C17.0356 19.2265 16.5206 19.0048 16.146 18.609C15.7761 18.209 15.6145 17.6876 15.6612 17.0449L15.6962 16.5628ZM17.1095 17.191C17.0924 17.4264 17.1431 17.6235 17.2616 17.7822C17.3803 17.9365 17.5534 18.0219 17.7808 18.0384C18.249 18.0724 18.5051 17.7861 18.5491 17.1795L18.5787 16.7722C18.5958 16.5368 18.5474 16.3399 18.4334 16.1814C18.3197 16.0185 18.1492 15.9287 17.9218 15.9122C17.7033 15.8963 17.524 15.9584 17.3839 16.0984C17.244 16.2338 17.1649 16.4283 17.1465 16.6818L17.1095 17.191Z" fill="#F3E4D0"/>
<path fill-rule="evenodd" clip-rule="evenodd" d="M19.9204 22.4598C19.9651 21.8441 20.1971 21.365 20.6164 21.0223C21.0402 20.68 21.5798 20.5326 22.2352 20.5802C22.8995 20.6285 23.4145 20.8502 23.7803 21.2453C24.146 21.6404 24.305 22.1662 24.2574 22.8225L24.2228 23.2978C24.1781 23.9134 23.9483 24.3927 23.5335 24.7357C23.1186 25.0787 22.579 25.2261 21.9147 25.1778C21.2593 25.1302 20.7443 24.9085 20.3696 24.5128C19.9998 24.1128 19.8382 23.5914 19.8849 22.9486L19.9204 22.4598ZM21.327 23.0875C21.3115 23.3002 21.3692 23.4933 21.5001 23.6666C21.6312 23.8354 21.7994 23.9272 22.0045 23.9421C22.4369 23.9735 22.6861 23.7823 22.7521 23.3685L22.8095 22.6696C22.827 22.4297 22.7763 22.2326 22.6575 22.0784C22.5391 21.9196 22.3684 21.8321 22.1454 21.8159C21.9314 21.8004 21.7547 21.8581 21.6152 21.989C21.476 22.1154 21.3934 22.296 21.3674 22.5307L21.327 23.0875Z" fill="#F3E4D0"/>
<path d="M17.7752 23.995L17.7783 23.9969L23.0946 16.6155L23.0936 16.6149C23.3511 16.2429 23.354 15.7933 23.0967 15.602C22.8348 15.4073 22.4024 15.5541 22.1309 15.9298C22.1103 15.9583 22.0912 15.9873 22.0737 16.0166L16.8376 23.2866C16.8181 23.3097 16.7992 23.3338 16.7811 23.3589C16.5096 23.7346 16.5018 24.197 16.7635 24.3916C17.0253 24.5862 17.4576 24.4394 17.7291 24.0637C17.7454 24.0411 17.7608 24.0182 17.7752 23.995Z" fill="#F3E4D0"/>
<rect x="13.8712" y="27.6087" width="11.7391" height="1.30435" rx="0.652174" fill="#F3E4D0"/>
<rect x="14.5234" y="30.2174" width="8.47826" height="1.30435" rx="0.652174" fill="#F3E4D0"/>
<rect x="15.1755" y="32.8261" width="8.47826" height="1.30435" rx="0.652174" fill="#F3E4D0"/>
</svg>
