<svg width="50" height="50" viewBox="0 0 50 50" fill="none" xmlns="http://www.w3.org/2000/svg">
<circle cx="25" cy="25" r="25" fill="#F3E4D0"/>
<mask id="mask0" mask-type="alpha" maskUnits="userSpaceOnUse" x="0" y="0" width="50" height="50">
<circle cx="25" cy="25" r="25" fill="#F3E4D0"/>
</mask>
<g mask="url(#mask0)">
<path d="M-3.40073 12.0516L-5.36471 9.91875L-11.6572 19.459C-10.7481 23.1539 -7.71928 25.9482 -3.96322 26.5573L11.7909 29.1119L19.9819 31.5857C22.3697 32.3069 24.9585 31.5614 26.5972 29.6809L28.6274 27.3509C29.346 26.5263 29.3035 25.286 28.53 24.5126C28.025 24.0075 27.3533 23.7038 26.6406 23.6581L22.344 23.3829C21.9091 23.3551 21.7352 22.8074 22.0743 22.5337L22.3388 22.3204C22.7301 22.0047 23.0577 21.6175 23.3043 21.1794C23.5059 20.8214 23.2095 20.3876 22.8027 20.4454L16.4614 21.3456L14.8217 21.7478C12.3735 22.3482 9.7858 21.8945 7.68801 20.4969L2.21639 16.8517C0.159351 15.4814 -1.72642 13.8699 -3.40073 12.0516Z" fill="#FFFFFD"/>
<path d="M16.5168 29.6278C16.2518 29.3628 16.3007 28.9204 16.6173 28.7196L18.9482 27.2418C20.8152 26.0581 22.5459 24.6722 24.109 23.109C25.6722 21.5459 27.4029 20.1599 29.2699 18.9763L31.8064 17.3681C32.047 17.2155 32.3613 17.2503 32.5627 17.4517L38.7248 23.6138C38.9899 23.8789 38.9409 24.3213 38.6244 24.522L36.2934 25.9998C34.4265 27.1835 32.6957 28.5695 31.1326 30.1326C29.5695 31.6957 27.8387 33.0817 25.9718 34.2654L23.4352 35.8736C23.1946 36.0261 22.8804 35.9914 22.6789 35.7899L16.5168 29.6278Z" fill="#F8EFE4"/>
<path fill-rule="evenodd" clip-rule="evenodd" d="M19.7352 27.8659C20.4228 28.5535 20.4228 29.6684 19.7352 30.3561C19.5897 30.5016 19.425 30.6163 19.2493 30.7003L22.2962 33.7471C22.3801 33.5714 22.4949 33.4068 22.6404 33.2613C23.328 32.5736 24.4429 32.5736 25.1306 33.2613C25.2249 33.3556 25.3063 33.4581 25.3748 33.5663L25.9651 33.179C27.5967 32.1087 29.1143 30.8739 30.4941 29.4941C31.8739 28.1143 33.3914 26.8795 35.023 25.8091L36.1089 25.0967C35.6597 24.4135 35.7355 23.4864 36.3364 22.8855L33.4312 19.9803C32.7435 20.668 31.6286 20.668 30.941 19.9803C30.7315 19.7709 30.5859 19.5218 30.504 19.2572L29.2764 20.0626C27.6449 21.133 26.1273 22.3677 24.7475 23.7475C23.3677 25.1273 21.8501 26.3621 20.2186 27.4325L19.6626 27.7972C19.6873 27.8193 19.7115 27.8422 19.7352 27.8659Z" fill="#FFFFFD"/>
<ellipse cx="27.6208" cy="26.6208" rx="2.34776" ry="2.9347" transform="rotate(-45 27.6208 26.6208)" fill="#F3E4D0"/>
</g>
</svg>
