<?xml version="1.0" encoding="UTF-8"?>
<svg width="200px" height="274px" viewBox="0 0 200 274" version="1.1" xmlns="http://www.w3.org/2000/svg" xmlns:xlink="http://www.w3.org/1999/xlink">
    <!-- Generator: Sketch 51.2 (57519) - http://www.bohemiancoding.com/sketch -->
    <title>Seed</title>
    <desc>Created with Sketch.</desc>
    <defs></defs>
    <g id="Symbols" stroke="none" stroke-width="1" fill="none" fill-rule="evenodd">
        <g id="Seed" transform="translate(-44.000000, -68.000000)">
            <g>
                <g id="seed-2" transform="translate(157.692013, 274.646759) scale(-1, 1) rotate(22.000000) translate(-157.692013, -274.646759) translate(74.692013, 182.646759)">
                    <g id="Group-10" transform="translate(82.587767, 83.390358) rotate(44.000000) translate(-82.587767, -83.390358) translate(33.587767, 15.390358)">
                        <path d="M33.1702963,58.2140732 C41.8615297,58.2140732 49.7299647,53.7924145 56.7756015,44.9490971 C49.7299647,36.1057798 41.8615297,31.6841211 33.1702963,31.6841211 C24.4790629,31.6841211 16.6106279,36.1057798 9.56499114,44.9490971 C16.6106279,53.7924145 24.4790629,58.2140732 33.1702963,58.2140732 Z" id="Oval-4" fill="#F2E4D1" transform="translate(33.170296, 44.949097) rotate(-300.000000) translate(-33.170296, -44.949097) "></path>
                        <path d="M27.6292232,54.8978292 C36.3204566,54.8978292 44.1888916,50.4761705 51.2345284,41.6328531 L4.02391804,41.6328531 C11.0695548,50.4761705 18.9379898,54.8978292 27.6292232,54.8978292 Z" id="Oval-4-Copy-15" fill="#DECDB5" transform="translate(27.629223, 48.265341) rotate(-300.000000) translate(-27.629223, -48.265341) "></path>
                        <path d="M63.8526241,40.1375359 C72.5438574,40.1375359 80.4122925,35.7158773 87.4579292,26.8725599 C80.4122925,18.0292426 72.5438574,13.6075839 63.8526241,13.6075839 C55.1613907,13.6075839 47.2929556,18.0292426 40.2473189,26.8725599 C47.2929556,35.7158773 55.1613907,40.1375359 63.8526241,40.1375359 Z" id="Oval-4-Copy-2" fill="#F2E4D1" transform="translate(63.852624, 26.872560) rotate(-250.000000) translate(-63.852624, -26.872560) "></path>
                        <path d="M93.4703458,35.7734924 C86.4247091,26.9301751 78.556274,22.5085164 69.8650406,22.5085164 C61.1738073,22.5085164 53.3053722,26.9301751 46.2597355,35.7734924 L93.4703458,35.7734924 Z" id="Oval-4-Copy-14" fill="#DECDB5" transform="translate(69.865041, 29.141004) rotate(-250.000000) translate(-69.865041, -29.141004) "></path>
                        <path d="M27.0297982,92.0433782 C35.7210316,92.0433782 43.5894666,87.6217195 50.6351033,78.7784021 C43.5894666,69.9350848 35.7210316,65.5134261 27.0297982,65.5134261 C18.3385648,65.5134261 10.4701298,69.9350848 3.42449302,78.7784021 C10.4701298,87.6217195 18.3385648,92.0433782 27.0297982,92.0433782 Z" id="Oval-4-Copy" fill="#F2E4D1" transform="translate(27.029798, 78.778402) rotate(-315.000000) translate(-27.029798, -78.778402) "></path>
                        <path d="M22.5055309,90.1007674 C31.1967643,90.1007674 39.0651994,85.6791087 46.1108361,76.8357914 L-1.09977422,76.8357914 C5.94586252,85.6791087 13.8142976,90.1007674 22.5055309,90.1007674 Z" id="Oval-4-Copy-16" fill="#DECDB5" transform="translate(22.505531, 83.468279) rotate(-315.000000) translate(-22.505531, -83.468279) "></path>
                        <path d="M27.5165878,125.929302 C36.2078211,125.929302 44.0762562,121.507643 51.1218929,112.664326 C44.0762562,103.821009 36.2078211,99.3993501 27.5165878,99.3993501 C18.8253544,99.3993501 10.9569193,103.821009 3.91128259,112.664326 C10.9569193,121.507643 18.8253544,125.929302 27.5165878,125.929302 Z" id="Oval-4-Copy-5" fill="#F2E4D1" transform="translate(27.516588, 112.664326) rotate(-332.000000) translate(-27.516588, -112.664326) "></path>
                        <path d="M24.5127772,125.152953 C33.2040106,125.152953 41.0724456,120.731295 48.1180824,111.887977 L0.907472043,111.887977 C7.95310878,120.731295 15.8215438,125.152953 24.5127772,125.152953 Z" id="Oval-4-Copy-17" fill="#DECDB5" transform="translate(24.512777, 118.520465) rotate(-332.000000) translate(-24.512777, -118.520465) "></path>
                        <path d="M71.4054117,78.140576 C80.0966451,78.140576 87.9650801,73.7189173 95.0107169,64.8756 C87.9650801,56.0322826 80.0966451,51.6106239 71.4054117,51.6106239 C62.7141783,51.6106239 54.8457433,56.0322826 47.8001065,64.8756 C54.8457433,73.7189173 62.7141783,78.140576 71.4054117,78.140576 Z" id="Oval-4-Copy-4" fill="#F2E4D1" transform="translate(71.405412, 64.875600) scale(-1, 1) rotate(-315.000000) translate(-71.405412, -64.875600) "></path>
                        <path d="M75.9296789,76.1979652 C84.6209123,76.1979652 92.4893474,71.7763065 99.5349841,62.9329892 L52.3243738,62.9329892 C59.3700105,71.7763065 67.2384456,76.1979652 75.9296789,76.1979652 Z" id="Oval-4-Copy-12" fill="#DECDB5" transform="translate(75.929679, 69.565477) scale(-1, 1) rotate(-315.000000) translate(-75.929679, -69.565477) "></path>
                        <path d="M72.6146135,113.903145 C81.3058469,113.903145 89.1742819,109.481486 96.2199186,100.638169 C89.1742819,91.7948514 81.3058469,87.3731927 72.6146135,87.3731927 C63.9233801,87.3731927 56.0549451,91.7948514 49.0093083,100.638169 C56.0549451,109.481486 63.9233801,113.903145 72.6146135,113.903145 Z" id="Oval-4-Copy-3" fill="#F2E4D1" transform="translate(72.614613, 100.638169) scale(-1, 1) rotate(-310.000000) translate(-72.614613, -100.638169) "></path>
                        <path d="M77.5159804,111.533938 C86.2072138,111.533938 94.0756488,107.112279 101.121286,98.2689618 L53.9106752,98.2689618 C60.956312,107.112279 68.824747,111.533938 77.5159804,111.533938 Z" id="Oval-4-Copy-13" fill="#DECDB5" transform="translate(77.515980, 104.901450) scale(-1, 1) rotate(-310.000000) translate(-77.515980, -104.901450) "></path>
                    </g>
                    <path d="M30.4666636,183.239427 C33.7827837,145.495559 64.2546391,89.4829233 96.929351,76.3754057" id="Path-5" stroke="#F2E4D1" stroke-width="7"></path>
                </g>
                <g id="seed-1" transform="translate(141.349520, 153.045538) scale(-1, 1) rotate(8.000000) translate(-141.349520, -153.045538) translate(17.849520, 16.545538)">
                    <g id="Group-10" transform="translate(123.604012, 124.527861) rotate(44.000000) translate(-123.604012, -124.527861) translate(49.604012, 23.527861)">
                        <path d="M49.9482492,86.8116162 C63.1115374,86.8116162 75.0286582,80.2546747 85.6996116,67.1407918 C75.0286582,54.0269088 63.1115374,47.4699674 49.9482492,47.4699674 C36.7849611,47.4699674 24.8678403,54.0269088 14.1968869,67.1407918 C24.8678403,80.2546747 36.7849611,86.8116162 49.9482492,86.8116162 Z" id="Oval-4" fill="#F2E4D1" transform="translate(49.948249, 67.140792) rotate(-300.000000) translate(-49.948249, -67.140792) "></path>
                        <path d="M41.5560293,81.8939101 C54.7193175,81.8939101 66.6364383,75.3369686 77.3073917,62.2230857 L5.80466696,62.2230857 C16.4756204,75.3369686 28.3927412,81.8939101 41.5560293,81.8939101 Z" id="Oval-4-Copy-15" fill="#DECDB5" transform="translate(41.556029, 72.058498) rotate(-300.000000) translate(-41.556029, -72.058498) "></path>
                        <path d="M96.4181004,60.0056582 C109.581389,60.0056582 121.498509,53.4487168 132.169463,40.3348338 C121.498509,27.2209508 109.581389,20.6640094 96.4181004,20.6640094 C83.2548122,20.6640094 71.3376915,27.2209508 60.666738,40.3348338 C71.3376915,53.4487168 83.2548122,60.0056582 96.4181004,60.0056582 Z" id="Oval-4-Copy-2" fill="#F2E4D1" transform="translate(96.418100, 40.334834) rotate(-250.000000) translate(-96.418100, -40.334834) "></path>
                        <path d="M141.275555,53.5341551 C130.604601,40.4202722 118.687481,33.8633307 105.524193,33.8633307 C92.3609044,33.8633307 80.4437836,40.4202722 69.7728302,53.5341551 L141.275555,53.5341551 Z" id="Oval-4-Copy-14" fill="#DECDB5" transform="translate(105.524193, 43.698743) rotate(-250.000000) translate(-105.524193, -43.698743) "></path>
                        <path d="M40.6481715,136.977581 C53.8114596,136.977581 65.7285804,130.42064 76.3995338,117.306757 C65.7285804,104.192874 53.8114596,97.6359321 40.6481715,97.6359321 C27.4848833,97.6359321 15.5677626,104.192874 4.89680912,117.306757 C15.5677626,130.42064 27.4848833,136.977581 40.6481715,136.977581 Z" id="Oval-4-Copy" fill="#F2E4D1" transform="translate(40.648171, 117.306757) rotate(-315.000000) translate(-40.648171, -117.306757) "></path>
                        <path d="M33.7959526,134.096855 C46.9592408,134.096855 58.8763616,127.539914 69.547315,114.426031 L-1.95540974,114.426031 C8.71554369,127.539914 20.6326645,134.096855 33.7959526,134.096855 Z" id="Oval-4-Copy-16" fill="#DECDB5" transform="translate(33.795953, 124.261443) rotate(-315.000000) translate(-33.795953, -124.261443) "></path>
                        <path d="M41.3854376,187.227507 C54.5487257,187.227507 66.4658465,180.670565 77.1367999,167.556682 C66.4658465,154.442799 54.5487257,147.885858 41.3854376,147.885858 C28.2221494,147.885858 16.3050286,154.442799 5.63407519,167.556682 C16.3050286,180.670565 28.2221494,187.227507 41.3854376,187.227507 Z" id="Oval-4-Copy-5" fill="#F2E4D1" transform="translate(41.385438, 167.556682) rotate(-332.000000) translate(-41.385438, -167.556682) "></path>
                        <path d="M36.836023,186.076248 C49.9993111,186.076248 61.9164319,179.519307 72.5873853,166.405424 L1.08466061,166.405424 C11.755614,179.519307 23.6727348,186.076248 36.836023,186.076248 Z" id="Oval-4-Copy-17" fill="#DECDB5" transform="translate(36.836023, 176.240836) rotate(-332.000000) translate(-36.836023, -176.240836) "></path>
                        <path d="M107.857158,116.360915 C121.020446,116.360915 132.937567,109.803973 143.60852,96.6900905 C132.937567,83.5762075 121.020446,77.019266 107.857158,77.019266 C94.6938699,77.019266 82.7767491,83.5762075 72.1057957,96.6900905 C82.7767491,109.803973 94.6938699,116.360915 107.857158,116.360915 Z" id="Oval-4-Copy-4" fill="#F2E4D1" transform="translate(107.857158, 96.690090) scale(-1, 1) rotate(-315.000000) translate(-107.857158, -96.690090) "></path>
                        <path d="M114.709377,113.480189 C127.872665,113.480189 139.789786,106.923248 150.460739,93.8093649 L78.9580146,93.8093649 C89.628968,106.923248 101.546089,113.480189 114.709377,113.480189 Z" id="Oval-4-Copy-12" fill="#DECDB5" transform="translate(114.709377, 103.644777) scale(-1, 1) rotate(-315.000000) translate(-114.709377, -103.644777) "></path>
                        <path d="M109.688552,169.393744 C122.85184,169.393744 134.768961,162.836803 145.439914,149.72292 C134.768961,136.609037 122.85184,130.052096 109.688552,130.052096 C96.5252638,130.052096 84.608143,136.609037 73.9371896,149.72292 C84.608143,162.836803 96.5252638,169.393744 109.688552,169.393744 Z" id="Oval-4-Copy-3" fill="#F2E4D1" transform="translate(109.688552, 149.722920) scale(-1, 1) rotate(-310.000000) translate(-109.688552, -149.722920) "></path>
                        <path d="M117.111906,165.880413 C130.275194,165.880413 142.192315,159.323472 152.863269,146.209589 L81.3605439,146.209589 C92.0314974,159.323472 103.948618,165.880413 117.111906,165.880413 Z" id="Oval-4-Copy-13" fill="#DECDB5" transform="translate(117.111906, 156.045001) scale(-1, 1) rotate(-310.000000) translate(-117.111906, -156.045001) "></path>
                    </g>
                    <path d="M44.3783116,272.786103 C49.4007339,216.815177 95.5518146,133.753231 145.039227,114.315904" id="Path-5" stroke="#F2E4D1" stroke-width="9"></path>
                </g>
            </g>
        </g>
    </g>
</svg>