<svg width="19" height="18" viewBox="0 0 19 18" fill="none" xmlns="http://www.w3.org/2000/svg">

<path opacity="0.8" fill-rule="evenodd" clip-rule="evenodd" d="M9.94366 1C5.52539 1 1.94366 4.58172 1.94366 9C1.94366 13.4183 5.52539 17 9.94366 17C14.3619 17 17.9437 13.4183 17.9437 9C17.9437 4.58172 14.3619 1 9.94366 1ZM0.943665 9C0.943665 4.02944 4.9731 0 9.94366 0C14.9142 0 18.9437 4.02944 18.9437 9C18.9437 13.9706 14.9142 18 9.94366 18C4.9731 18 0.943665 13.9706 0.943665 9ZM9.94366 3H8.94366V10V11H9.94366H14.9437V10H9.94366V3Z" fill="#E57C6B"/>

</svg>
