<svg width="170" height="170" viewBox="0 0 170 170" fill="none" xmlns="http://www.w3.org/2000/svg">
<circle cx="85" cy="85" r="85" fill="#F3E4D0"/>
<mask id="mask0" mask-type="alpha" maskUnits="userSpaceOnUse" x="0" y="0" width="170" height="170">
<circle cx="85" cy="85" r="85" fill="#F3E4D0"/>
</mask>
<g mask="url(#mask0)">
<path d="M147.905 139.661L117.076 145.565C112.661 146.41 108.155 146.68 103.67 146.366L-7.11763 138.623C-10.3595 138.396 -11.33 134.097 -8.5 132.5L94.4917 130L147.859 137.689C148.976 137.85 149.013 139.448 147.905 139.661Z" fill="#E0CFB9"/>
<path d="M49.9573 74.5115L101.293 67.4306V132.043L49.9573 139.124V74.5115Z" fill="#E0CFB9"/>
<path d="M41.9913 138.681L49.9573 139.124L52.6126 135.141H47.302L41.9913 138.681Z" fill="#E0CFB9"/>
<path d="M39.163 64.1957C40.1212 64.0655 41.0898 64.0284 42.0552 64.0847L101.293 67.5404L52.5536 74.1589C51.0664 74.3608 49.9573 75.6308 49.9573 77.1316V135.964C49.9573 137.682 48.5174 139.049 46.8018 138.96L-9.15544 136.057C-10.7497 135.974 -12 134.658 -12 133.061V73.7645C-12 72.2637 -10.8909 70.9938 -9.40374 70.7918L39.163 64.1957Z" fill="#F8EFE4"/>
<path d="M20.6467 125.089C20.6467 123.95 21.596 123.041 22.7335 123.091L41.7335 123.917C42.8033 123.963 43.6467 124.844 43.6467 125.915V131.911C43.6467 133.05 42.6974 133.959 41.5598 133.909L22.5598 133.083C21.49 133.037 20.6467 132.156 20.6467 131.085V125.089Z" fill="white"/>
<path d="M98.3223 37.3887C98.7116 35.4424 100.469 34.076 102.451 34.1785L138.932 36.0651C141.31 36.1881 143.055 38.3486 142.674 40.6991L127.992 131.374C127.395 135.062 124.581 137.998 120.922 138.751L100.422 142.969C98.2708 143.412 96.0705 143.569 93.8781 143.437L57.2445 141.227C55.1327 141.099 53.4854 139.35 53.4854 137.234L53.4854 111.524C53.4854 109.51 54.9833 107.81 56.9817 107.556L79.2913 104.725C82.7018 104.292 85.4544 101.728 86.1286 98.3572L98.3223 37.3887Z" fill="#F8EFE4"/>
<mask id="mask1" mask-type="alpha" maskUnits="userSpaceOnUse" x="53" y="34" width="91" height="110">
<path d="M98.3223 37.3887C98.7116 35.4424 100.469 34.076 102.451 34.1785L143.388 36.2955L128.543 127.971C127.614 133.708 123.237 138.274 117.545 139.446L100.422 142.969C98.2708 143.412 96.0705 143.569 93.8781 143.437L60.0639 141.397C56.3683 141.174 53.4854 138.112 53.4854 134.41L53.4854 114.168C53.4854 110.642 56.1068 107.667 59.604 107.223L74.2961 105.359C80.6908 104.547 85.8519 99.7405 87.1161 93.4197L98.3223 37.3887Z" fill="#F8EFE4"/>
</mask>
<g mask="url(#mask1)">
<path d="M60 140.124V143L99 144L67.7645 134.389C63.9062 133.202 60 136.087 60 140.124Z" fill="#F3E4D0"/>
</g>
<path d="M102.193 43.8751C102.278 43.3759 102.723 43.0192 103.229 43.0447L133.948 44.5921C134.52 44.6209 134.951 45.1233 134.892 45.693L134.64 48.151C134.59 48.6401 134.191 49.0201 133.7 49.0473L102.252 50.7927C101.611 50.8283 101.103 50.259 101.211 49.626L102.193 43.8751Z" fill="#F3E4D0"/>
<path d="M100.193 54.8751C100.278 54.3759 100.723 54.0192 101.229 54.0447L131.948 55.5921C132.52 55.6209 132.951 56.1233 132.892 56.693L132.64 59.151C132.59 59.6401 132.191 60.0201 131.7 60.0473L100.252 61.7927C99.611 61.8283 99.103 61.259 99.211 60.626L100.193 54.8751Z" fill="#F3E4D0"/>
</g>
</svg>
