<svg width="50" height="50" viewBox="0 0 50 50" fill="none" xmlns="http://www.w3.org/2000/svg">
<circle cx="25" cy="25" r="25" fill="#F3E4D0"/>
<mask id="mask0" mask-type="alpha" maskUnits="userSpaceOnUse" x="0" y="0" width="50" height="50">
<circle cx="25" cy="25" r="25" fill="#F3E4D0"/>
</mask>
<g mask="url(#mask0)">
<path d="M26.5989 44.2976H-0.678558L-1 30.5L36 35.0119H46.0674C46.5836 35.0119 46.7613 35.6988 46.3099 35.9492L35.3286 42.039C32.6575 43.5204 29.6533 44.2976 26.5989 44.2976Z" fill="#DECDB4"/>
<rect x="11.75" y="6.70238" width="2.07143" height="18.3334" fill="#F8EFE4"/>
<rect x="13.8214" y="6.70237" width="1.03571" height="18.2976" fill="#E0CFB9"/>
<rect x="26.9405" y="6.70238" width="2.07143" height="18.3334" fill="#F8EFE4"/>
<path d="M29.0119 6.70237C29.5839 6.70237 30.0476 7.16608 30.0476 7.73809V25H29.0119V6.70237Z" fill="#E0CFB9"/>
<rect x="-0.333344" y="6.70237" width="1.03571" height="18.2976" fill="#E0CFB9"/>
<path d="M20.7262 19.4762C20.7262 19.4762 31.9879 14.879 33.5207 14.3499C35.0536 13.8207 36.3377 13.7197 37.2976 13.7798C39.0891 13.8918 39.6081 14.4702 39.6081 16.5181V34.4867C39.6081 35.4498 39.0866 36.3359 38.244 36.8024C35.9948 38.0475 31.4703 40.5545 28.5853 42.169C28.072 42.4562 27.4946 42.6071 26.9065 42.6071H20.5536C19.6002 42.6071 19.2376 42.4289 19.2376 41.3988V36.6309C19.2376 34.9741 17.8945 33.6309 16.2376 33.6309H-7.58333C-8.91802 33.6309 -10 32.549 -10 31.2143V27.4167C-10 26.082 -8.91802 25 -7.58333 25H19.2376V21.7202C19.2376 20.1667 20.7262 19.4762 20.7262 19.4762Z" fill="#F8EFE4"/>
<path d="M-10 38C-10 36.3431 -8.65685 35 -7 35H15C16.6569 35 18 36.3431 18 38V42C18 42.5523 17.5523 43 17 43H-7C-8.65685 43 -10 41.6569 -10 40V38Z" fill="#F8EFE4"/>
<rect x="-10" y="12.0946" width="38.2246" height="2.07143" fill="#F8EFE4"/>
<rect x="-10" y="6.70238" width="38.2246" height="2.07143" fill="#F8EFE4"/>
<rect x="21" y="21" width="5" height="20" rx="1" fill="white"/>
</g>
</svg>
