<svg width="50" height="50" viewBox="0 0 50 50" fill="none" xmlns="http://www.w3.org/2000/svg">
<circle cx="25" cy="25" r="25" fill="#F3E4D0"/>
<path d="M39.6362 25.4442C39.6362 24.3396 38.7407 23.4442 37.6362 23.4442H27V33.2723H39.6362V25.4442Z" fill="#DECDB4"/>
<path d="M39.6362 32.9213H27.702V38.8883H37.6362C38.7407 38.8883 39.6362 37.9929 39.6362 36.8883V32.9213Z" fill="#DECDB4"/>
<path d="M12 13C12 11.8954 12.8954 11 14 11H33C34.1046 11 35 11.8954 35 13V33H12V13Z" fill="#F8EFE4"/>
<path fill-rule="evenodd" clip-rule="evenodd" d="M35 32.9213H12V36.8883C12 37.9929 12.8954 38.8883 14 38.8883H36.3395C35.5595 38.6155 35 37.8731 35 37V32.9213Z" fill="#F8EFE4"/>
<rect x="16" y="23.4545" width="2.36364" height="2.36364" rx="1" fill="#DECDB4"/>
<rect x="16" y="28.4545" width="2.36364" height="2.36364" rx="1" fill="#F3E4D0"/>
<rect x="20.7273" y="23.4545" width="2.36364" height="2.36364" rx="1" fill="#DECDB4"/>
<rect x="25.4545" y="18.4545" width="2.36364" height="2.36364" rx="1" fill="#F3E4D0"/>
<rect x="25.4545" y="23.4545" width="2.36364" height="2.36364" rx="1" fill="#F3E4D0"/>
<rect x="30.1818" y="18.4545" width="2.36364" height="2.36364" rx="1" fill="#F3E4D0"/>
<rect x="16" y="18.4545" width="2.36364" height="2.36364" rx="1" fill="#F3E4D0"/>
<rect x="20.7273" y="18.4545" width="2.36364" height="2.36364" rx="1" fill="#F3E4D0"/>
<rect x="30.1818" y="23.4545" width="2.36364" height="2.36364" rx="1" fill="#DECDB4"/>
<path d="M12 13C12 11.8954 12.8954 11 14 11H33C34.1046 11 35 11.8954 35 13V17H12V13Z" fill="#FFFFFD"/>
<rect x="29" y="10" width="2" height="4" rx="1" fill="#F3E4D0"/>
<rect x="15" y="10" width="2" height="4" rx="1" fill="#F3E4D0"/>
<path d="M25.3022 36H23.75V30.0166L21.897 30.5913V29.3291L25.1357 28.1689H25.3022V36ZM31.4618 32.7666C31.4618 33.848 31.238 34.6751 30.7904 35.248C30.3428 35.821 29.6876 36.1074 28.8246 36.1074C27.9724 36.1074 27.3207 35.8263 26.8695 35.2642C26.4184 34.702 26.1874 33.8963 26.1767 32.8472V31.4077C26.1767 30.3156 26.4022 29.4867 26.8534 28.9209C27.3082 28.3551 27.9617 28.0723 28.8139 28.0723C29.6661 28.0723 30.3178 28.3534 30.7689 28.9155C31.2201 29.4741 31.4511 30.278 31.4618 31.3271V32.7666ZM29.9096 31.1875C29.9096 30.5394 29.8201 30.0685 29.641 29.7749C29.4656 29.4777 29.1898 29.3291 28.8139 29.3291C28.4486 29.3291 28.1783 29.4705 28.0028 29.7534C27.831 30.0327 27.7396 30.4714 27.7289 31.0693V32.9707C27.7289 33.6081 27.8148 34.0825 27.9867 34.394C28.1622 34.702 28.4415 34.856 28.8246 34.856C29.2042 34.856 29.4781 34.7074 29.6464 34.4102C29.8147 34.113 29.9024 33.6582 29.9096 33.0459V31.1875Z" fill="#DECDB4"/>
</svg>
