<svg width="50" height="50" viewBox="0 0 50 50" fill="none" xmlns="http://www.w3.org/2000/svg">
<circle cx="25" cy="25" r="25" fill="#F3E4D0"/>
<path fill-rule="evenodd" clip-rule="evenodd" d="M37.9614 8.46667C37.6113 10.0018 34.9266 11.1957 31.6667 11.1957C28.4067 11.1957 25.7221 10.0018 25.372 8.46667H25.2926C24.9242 10.0018 22.0982 11.1957 18.6667 11.1957C15.2351 11.1957 12.4092 10.0018 12.0407 8.46667H12V24.5V24.8411H12.0029C12.1501 33.5386 17.9127 40.5333 25 40.5333C32.0873 40.5333 37.8499 33.5386 37.9971 24.8411H38V24.5V8.46667H37.9614Z" fill="#FFFFFD"/>
<path d="M24.5908 35.0229L24.6649 38.8768L22.5996 38.3234L24.5908 35.0229Z" fill="#DECDB4"/>
<path d="M25.7818 35.0229L25.7076 38.8768L27.7729 38.3234L25.7818 35.0229Z" fill="#DECDB4"/>
<circle cx="25.2065" cy="34.0862" r="3.08616" fill="#DECDB4"/>
<circle cx="25" cy="22.3333" r="6.93333" fill="#DECDB4"/>
<path d="M23.7691 26.2667H22.2169V20.2833L20.3639 20.858V19.5958L23.6026 18.4356H23.7691V26.2667ZM29.7622 20.525C29.7622 20.9045 29.6673 21.2411 29.4775 21.5347C29.2878 21.8284 29.0264 22.0629 28.6934 22.2383C29.0729 22.421 29.3737 22.6734 29.5957 22.9957C29.8177 23.3144 29.9287 23.6903 29.9287 24.1236C29.9287 24.8183 29.6924 25.3679 29.2197 25.7725C28.7471 26.1736 28.1043 26.3741 27.2915 26.3741C26.4787 26.3741 25.8342 26.1718 25.3579 25.7672C24.8817 25.3625 24.6436 24.8147 24.6436 24.1236C24.6436 23.6903 24.7546 23.3126 24.9766 22.9903C25.1986 22.668 25.4976 22.4174 25.8735 22.2383C25.5405 22.0629 25.2791 21.8284 25.0894 21.5347C24.9032 21.2411 24.8101 20.9045 24.8101 20.525C24.8101 19.859 25.0321 19.329 25.4761 18.9351C25.9201 18.5377 26.5234 18.3389 27.2861 18.3389C28.0453 18.3389 28.6468 18.5359 29.0908 18.9298C29.5384 19.3201 29.7622 19.8518 29.7622 20.525ZM28.3711 24.0108C28.3711 23.6706 28.2726 23.3985 28.0757 23.1944C27.8787 22.9903 27.6138 22.8883 27.2808 22.8883C26.9513 22.8883 26.6882 22.9903 26.4912 23.1944C26.2943 23.3949 26.1958 23.6671 26.1958 24.0108C26.1958 24.3438 26.2925 24.6124 26.4858 24.8165C26.6792 25.0206 26.9478 25.1226 27.2915 25.1226C27.6281 25.1226 27.8913 25.0242 28.0811 24.8272C28.2744 24.6303 28.3711 24.3581 28.3711 24.0108ZM28.21 20.6002C28.21 20.2958 28.1294 20.0523 27.9683 19.8697C27.8071 19.6835 27.5798 19.5904 27.2861 19.5904C26.9961 19.5904 26.7705 19.6799 26.6094 19.859C26.4482 20.038 26.3677 20.2851 26.3677 20.6002C26.3677 20.9117 26.4482 21.1623 26.6094 21.3521C26.7705 21.5419 26.9979 21.6368 27.2915 21.6368C27.5851 21.6368 27.8107 21.5419 27.9683 21.3521C28.1294 21.1623 28.21 20.9117 28.21 20.6002Z" fill="#FFFFFD"/>
</svg>
