<svg width="50" height="50" viewBox="0 0 50 50" fill="none" xmlns="http://www.w3.org/2000/svg">
<circle cx="25" cy="25" r="25" fill="#F3E4D0"/>
<path d="M39.6362 27.4442C39.6362 26.3396 38.7407 25.4442 37.6362 25.4442H27V35.2723H39.6362V27.4442Z" fill="#DECDB4"/>
<path d="M39.6362 34.9213H27.702V40.8884H37.6362C38.7407 40.8884 39.6362 39.9929 39.6362 38.8884V34.9213Z" fill="#DECDB4"/>
<path d="M12 12C12 10.8954 12.8954 10 14 10H32.8153C33.9198 10 34.8153 10.8954 34.8153 12V34.9213H12V12Z" fill="#FFFFFD"/>
<path fill-rule="evenodd" clip-rule="evenodd" d="M34.8153 34.9213H12V38.8884C12 39.9929 12.8954 40.8884 14 40.8884H41.1333L36.8153 40.8883C35.7107 40.8883 34.8153 39.9929 34.8153 38.8883V34.9213Z" fill="#FFFFFD"/>
<path d="M17.2106 34.5999L17.277 38.0486L15.4288 37.5534L17.2106 34.5999Z" fill="#DECDB4"/>
<path d="M18.2764 34.5999L18.2101 38.0486L20.0582 37.5534L18.2764 34.5999Z" fill="#DECDB4"/>
<circle cx="17.7617" cy="33.7617" r="2.76167" fill="#DECDB4"/>
<path d="M26 16C24.3431 16 23 17.2508 23 18.7937C23 17.2508 21.6569 16 20 16C18.3431 16 17 17.2508 17 18.7937C17 23.9444 23 27 23 27C23 27 29 23.9444 29 18.7937C29 17.2508 27.6569 16 26 16Z" fill="#F3E4D0"/>
</svg>
