<svg width="50" height="50" viewBox="0 0 50 50" fill="none" xmlns="http://www.w3.org/2000/svg">
<circle cx="25" cy="25" r="25" fill="#F3E4D0"/>
<mask id="mask0" mask-type="alpha" maskUnits="userSpaceOnUse" x="0" y="0" width="50" height="50">
<circle cx="25" cy="25" r="25" fill="#F3E4D0"/>
</mask>
<g mask="url(#mask0)">
<path d="M42.6505 6.4316L43.3595 5.66164L47.8911 12.5321C47.2363 15.1929 45.0552 17.2052 42.3502 17.6439L31.0049 19.4836L25.1062 21.2651C23.3866 21.7844 21.5223 21.2476 20.3422 19.8933L18.8801 18.2154C18.3626 17.6215 18.3932 16.7284 18.9502 16.1714C19.3139 15.8077 19.7977 15.5889 20.3109 15.5561L23.4051 15.3579C23.7183 15.3378 23.8435 14.9434 23.5993 14.7463L23.4088 14.5926C23.1271 14.3653 22.8911 14.0865 22.7135 13.771C22.5683 13.5131 22.7818 13.2008 23.0748 13.2424L27.6415 13.8907L27.7472 13.9166C30.1953 14.5171 32.7831 14.0633 34.8809 12.6658L37.0334 11.2318C39.0904 9.86136 40.9762 8.24986 42.6505 6.4316Z" fill="#FFFFFD"/>
<path d="M19.0919 11.5425L26.6253 10.5034V19.1135C26.6253 19.613 26.2567 20.0359 25.7619 20.1041L19.0919 21.0241V11.5425Z" fill="#DECDB4"/>
<path d="M15.3777 20.7482L19.0919 21.0241L19.4816 20.4396L19.2862 19.0383L15.3777 20.7482Z" fill="#DECDB4"/>
<path d="M16.2786 10.1957C17.2369 10.0655 18.2055 10.0284 19.1709 10.0847L26.6253 10.5195L19.9574 11.425C19.4617 11.4923 19.092 11.9156 19.092 12.4159V19.9709C19.092 20.5435 18.612 20.9992 18.0401 20.9696L10.9482 20.6016C10.4168 20.574 10 20.1351 10 19.6029V11.9218C10 11.4215 10.3697 10.9982 10.8654 10.9309L16.2786 10.1957Z" fill="#F8EFE4"/>
<path d="M29.069 27.3117L40.3586 25.7545V39.0923C40.3586 39.5918 39.9901 40.0147 39.4953 40.0829L29.069 41.521V27.3117Z" fill="#DECDB4"/>
<path d="M23.5027 41.1076L29.0689 41.521L29.6528 40.6451L29.36 38.545L23.5027 41.1076Z" fill="#DECDB4"/>
<path d="M25.5712 25.1957C26.5295 25.0655 27.4981 25.0284 28.4635 25.0847L40.3586 25.7786L29.9344 27.1941C29.4387 27.2614 29.069 27.6847 29.069 28.185V40.4678C29.069 41.0405 28.589 41.4961 28.0171 41.4665L16.3917 40.8633C15.8603 40.8357 15.4435 40.3968 15.4435 39.8646V27.4445C15.4435 26.9443 15.8132 26.521 16.3089 26.4536L25.5712 25.1957Z" fill="#FFFFFD"/>
<path d="M7.79122 31.7536L-0.837649 25L-6 32.4599L1.75238 37.2287C5.56771 39.5756 9.89042 40.9729 14.3576 41.3033L21.6562 41.843L26.4069 42.3206C27.875 42.4682 29.3398 42.011 30.4633 41.0546L32.4435 39.369C33.0052 38.8909 33.021 38.0287 32.4772 37.5303C32.092 37.1773 31.5966 36.9683 31.075 36.9388L27.239 36.7215C26.93 36.704 26.7636 36.3506 26.947 36.1012L26.9979 36.0321C27.2735 35.6574 27.4844 35.2393 27.622 34.7951C27.7615 34.3447 27.2788 33.9553 26.8681 34.1869L23.3438 36.1747C21.3242 37.2686 18.9317 37.4415 16.7759 36.6491L16.204 36.4389C13.1728 35.3249 10.3343 33.7441 7.79122 31.7536Z" fill="#F8EFE4"/>
</g>
</svg>
