<svg width="50" height="50" viewBox="0 0 50 50" fill="none" xmlns="http://www.w3.org/2000/svg">
<circle cx="25" cy="25" r="25" fill="#F3E4D0"/>
<path fill-rule="evenodd" clip-rule="evenodd" d="M37.9614 10.4667C37.6113 12.0018 34.9266 13.1957 31.6667 13.1957C28.4067 13.1957 25.7221 12.0018 25.372 10.4667H25.2926C24.9242 12.0018 22.0982 13.1957 18.6667 13.1957C15.2351 13.1957 12.4092 12.0018 12.0407 10.4667H12V26.5V26.8411H12.0029C12.1501 35.5386 17.9127 42.5333 25 42.5333C32.0873 42.5333 37.8499 35.5386 37.9971 26.8411H38V26.5V10.4667H37.9614Z" fill="#FFFFFD"/>
<path d="M24.5908 37.0229L24.6649 40.8768L22.5996 40.3234L24.5908 37.0229Z" fill="#DECDB4"/>
<path d="M25.7818 37.0229L25.7076 40.8768L27.7729 40.3234L25.7818 37.0229Z" fill="#DECDB4"/>
<circle cx="25.2065" cy="36.0862" r="3.08616" fill="#DECDB4"/>
<circle cx="25" cy="24.3333" r="6.93333" fill="#DECDB4"/>
<path d="M23.7691 28.2667H22.2169V22.2833L20.3639 22.858V21.5958L23.6026 20.4356H23.7691V28.2667ZM30.0254 28.2667H24.665V27.2032L27.1948 24.5069C27.5422 24.1273 27.7982 23.7961 27.9629 23.5133C28.1312 23.2304 28.2153 22.9618 28.2153 22.7076C28.2153 22.3603 28.1276 22.0881 27.9522 21.8912C27.7767 21.6907 27.526 21.5904 27.2002 21.5904C26.8493 21.5904 26.5718 21.7121 26.3677 21.9556C26.1672 22.1955 26.0669 22.5124 26.0669 22.9063H24.5093C24.5093 22.4301 24.6221 21.995 24.8477 21.6011C25.0768 21.2073 25.3991 20.8993 25.8145 20.6773C26.2298 20.4517 26.7007 20.3389 27.2271 20.3389C28.0327 20.3389 28.6576 20.5323 29.1016 20.919C29.5492 21.3057 29.773 21.8518 29.773 22.5572C29.773 22.9439 29.6727 23.3378 29.4722 23.7388C29.2717 24.1399 28.9279 24.6072 28.4409 25.1407L26.6631 27.0152H30.0254V28.2667Z" fill="#FFFFFD"/>
</svg>
